<mxfile host="app.diagrams.net" modified="2024-01-19T09:50:30.365Z" agent="Mozilla/5.0 (Windows NT 10.0; Win64; x64) AppleWebKit/537.36 (KHTML, like Gecko) Chrome/119.0.0.0 Safari/537.36 OPR/105.0.0.0" etag="lQmlOam8Syvk2V4l-gm8" version="22.1.18" type="github">
  <diagram name="Page-1" id="64c3da0e-402f-94eb-ee01-a36477274f13">
    <mxGraphModel dx="844" dy="507" grid="1" gridSize="10" guides="1" tooltips="1" connect="1" arrows="1" fold="1" page="1" pageScale="1" pageWidth="4681" pageHeight="3300" background="none" math="0" shadow="0">
      <root>
        <mxCell id="0" />
        <mxCell id="1" parent="0" />
        <mxCell id="2" value="Geb. 530" style="whiteSpace=wrap;rounded=1;shadow=1;fillColor=#10739E;strokeColor=none;fontColor=#FFFFFF;fontStyle=1;fontSize=24" parent="1" vertex="1">
          <mxGeometry x="430" y="20" width="340" height="60" as="geometry" />
        </mxCell>
        <mxCell id="3" value="Brandabschnitt VI" style="whiteSpace=wrap;rounded=1;fillColor=#F2931E;strokeColor=none;shadow=1;fontColor=#FFFFFF;fontStyle=1;fontSize=14" parent="1" vertex="1">
          <mxGeometry x="160" y="169.9999999999998" width="140" height="60" as="geometry" />
        </mxCell>
        <mxCell id="4" value="Brandabschnitt V" style="whiteSpace=wrap;rounded=1;fillColor=#F2931E;strokeColor=none;shadow=1;fontColor=#FFFFFF;fontStyle=1;fontSize=14" parent="1" vertex="1">
          <mxGeometry x="530" y="169.9999999999998" width="140" height="60" as="geometry" />
        </mxCell>
        <mxCell id="5" value="Brandabschnitt I" style="whiteSpace=wrap;rounded=1;fillColor=#F2931E;strokeColor=none;shadow=1;fontColor=#FFFFFF;fontStyle=1;fontSize=14" parent="1" vertex="1">
          <mxGeometry x="2680.04" y="159.9999999999998" width="140" height="60" as="geometry" />
        </mxCell>
        <mxCell id="6" value="Brandabschnitt IV" style="whiteSpace=wrap;rounded=1;fillColor=#F2931E;strokeColor=none;shadow=1;fontColor=#FFFFFF;fontStyle=1;fontSize=14" parent="1" vertex="1">
          <mxGeometry x="900" y="169.9999999999998" width="140" height="60" as="geometry" />
        </mxCell>
        <mxCell id="7" value="Brandabschnitt III" style="whiteSpace=wrap;rounded=1;fillColor=#F2931E;strokeColor=none;shadow=1;fontColor=#FFFFFF;fontStyle=1;fontSize=14" parent="1" vertex="1">
          <mxGeometry x="1270" y="169.9999999999998" width="140" height="60" as="geometry" />
        </mxCell>
        <mxCell id="8" value="Brandabschnitt II" style="whiteSpace=wrap;rounded=1;fillColor=#F2931E;strokeColor=none;shadow=1;fontColor=#FFFFFF;fontStyle=1;fontSize=14" parent="1" vertex="1">
          <mxGeometry x="1640" y="169.9999999999998" width="140" height="60" as="geometry" />
        </mxCell>
        <mxCell id="10" value="SUB-TASK 1" style="whiteSpace=wrap;rounded=1;fillColor=#12AAB5;strokeColor=none;shadow=1;fontColor=#FFFFFF;" parent="1" vertex="1">
          <mxGeometry x="70" y="300.0000000000001" width="120" height="60" as="geometry" />
        </mxCell>
        <mxCell id="12" value="SUB-TASK 2" style="whiteSpace=wrap;rounded=1;fillColor=#12AAB5;strokeColor=none;shadow=1;fontColor=#FFFFFF;" parent="1" vertex="1">
          <mxGeometry x="270" y="300.0000000000001" width="120" height="60" as="geometry" />
        </mxCell>
        <mxCell id="23" value="WORK&#xa;PACKAGE 1" style="whiteSpace=wrap;rounded=1;fillColor=#999999;strokeColor=none;shadow=1;fontColor=#FFFFFF;fontStyle=0" parent="1" vertex="1">
          <mxGeometry x="69.99999999999996" y="400.0000000000001" width="120" height="60" as="geometry" />
        </mxCell>
        <mxCell id="24" value="WORK&#xa;PACKAGE 2" style="whiteSpace=wrap;rounded=1;fillColor=#999999;strokeColor=none;shadow=1;fontColor=#FFFFFF;fontStyle=0" parent="1" vertex="1">
          <mxGeometry x="70.0000000000001" y="480.0000000000001" width="120" height="60" as="geometry" />
        </mxCell>
        <mxCell id="25" value="WORK&#xa;PACKAGE 3" style="whiteSpace=wrap;rounded=1;fillColor=#999999;strokeColor=none;shadow=1;fontColor=#FFFFFF;fontStyle=0" parent="1" vertex="1">
          <mxGeometry x="70.00000000000006" y="560.0000000000001" width="120" height="60" as="geometry" />
        </mxCell>
        <mxCell id="26" value="WORK&#xa;PACKAGE 4" style="whiteSpace=wrap;rounded=1;fillColor=#999999;strokeColor=none;shadow=1;fontColor=#FFFFFF;fontStyle=0" parent="1" vertex="1">
          <mxGeometry x="70.0000000000002" y="640.0000000000001" width="120" height="60" as="geometry" />
        </mxCell>
        <mxCell id="27" value="WORK&#xa;PACKAGE 5" style="whiteSpace=wrap;rounded=1;fillColor=#999999;strokeColor=none;shadow=1;fontColor=#FFFFFF;fontStyle=0" parent="1" vertex="1">
          <mxGeometry x="70.00000000000036" y="720.0000000000001" width="120" height="60" as="geometry" />
        </mxCell>
        <mxCell id="38" value="WORK&#xa;PACKAGE 1" style="whiteSpace=wrap;rounded=1;fillColor=#999999;strokeColor=none;shadow=1;fontColor=#FFFFFF;fontStyle=0" parent="1" vertex="1">
          <mxGeometry x="269.9999999999996" y="400.0000000000001" width="120" height="60" as="geometry" />
        </mxCell>
        <mxCell id="39" value="WORK&#xa;PACKAGE 2" style="whiteSpace=wrap;rounded=1;fillColor=#999999;strokeColor=none;shadow=1;fontColor=#FFFFFF;fontStyle=0" parent="1" vertex="1">
          <mxGeometry x="269.9999999999998" y="480.0000000000001" width="120" height="60" as="geometry" />
        </mxCell>
        <mxCell id="40" value="WORK&#xa;PACKAGE 3" style="whiteSpace=wrap;rounded=1;fillColor=#999999;strokeColor=none;shadow=1;fontColor=#FFFFFF;fontStyle=0" parent="1" vertex="1">
          <mxGeometry x="269.9999999999997" y="560.0000000000001" width="120" height="60" as="geometry" />
        </mxCell>
        <mxCell id="41" value="WORK&#xa;PACKAGE 4" style="whiteSpace=wrap;rounded=1;fillColor=#999999;strokeColor=none;shadow=1;fontColor=#FFFFFF;fontStyle=0" parent="1" vertex="1">
          <mxGeometry x="269.9999999999999" y="640.0000000000001" width="120" height="60" as="geometry" />
        </mxCell>
        <mxCell id="42" value="WORK&#xa;PACKAGE 5" style="whiteSpace=wrap;rounded=1;fillColor=#999999;strokeColor=none;shadow=1;fontColor=#FFFFFF;fontStyle=0" parent="1" vertex="1">
          <mxGeometry x="270" y="720.0000000000001" width="120" height="60" as="geometry" />
        </mxCell>
        <mxCell id="43" value="SUB-TASK 1" style="whiteSpace=wrap;rounded=1;fillColor=#12AAB5;strokeColor=none;shadow=1;fontColor=#FFFFFF;" parent="1" vertex="1">
          <mxGeometry x="439.9999999999998" y="300.0000000000001" width="120" height="60" as="geometry" />
        </mxCell>
        <mxCell id="44" value="SUB-TASK 2" style="whiteSpace=wrap;rounded=1;fillColor=#12AAB5;strokeColor=none;shadow=1;fontColor=#FFFFFF;" parent="1" vertex="1">
          <mxGeometry x="639.9999999999998" y="300.0000000000001" width="120" height="60" as="geometry" />
        </mxCell>
        <mxCell id="45" value="WORK&#xa;PACKAGE 1" style="whiteSpace=wrap;rounded=1;fillColor=#999999;strokeColor=none;shadow=1;fontColor=#FFFFFF;fontStyle=0" parent="1" vertex="1">
          <mxGeometry x="439.9999999999997" y="400.0000000000001" width="120" height="60" as="geometry" />
        </mxCell>
        <mxCell id="46" value="WORK&#xa;PACKAGE 2" style="whiteSpace=wrap;rounded=1;fillColor=#999999;strokeColor=none;shadow=1;fontColor=#FFFFFF;fontStyle=0" parent="1" vertex="1">
          <mxGeometry x="439.9999999999999" y="480.0000000000001" width="120" height="60" as="geometry" />
        </mxCell>
        <mxCell id="47" value="WORK&#xa;PACKAGE 3" style="whiteSpace=wrap;rounded=1;fillColor=#999999;strokeColor=none;shadow=1;fontColor=#FFFFFF;fontStyle=0" parent="1" vertex="1">
          <mxGeometry x="439.99999999999983" y="560.0000000000001" width="120" height="60" as="geometry" />
        </mxCell>
        <mxCell id="48" value="WORK&#xa;PACKAGE 4" style="whiteSpace=wrap;rounded=1;fillColor=#999999;strokeColor=none;shadow=1;fontColor=#FFFFFF;fontStyle=0" parent="1" vertex="1">
          <mxGeometry x="440" y="640.0000000000001" width="120" height="60" as="geometry" />
        </mxCell>
        <mxCell id="49" value="WORK&#xa;PACKAGE 5" style="whiteSpace=wrap;rounded=1;fillColor=#999999;strokeColor=none;shadow=1;fontColor=#FFFFFF;fontStyle=0" parent="1" vertex="1">
          <mxGeometry x="440.0000000000001" y="720.0000000000001" width="120" height="60" as="geometry" />
        </mxCell>
        <mxCell id="50" value="WORK&#xa;PACKAGE 1" style="whiteSpace=wrap;rounded=1;fillColor=#999999;strokeColor=none;shadow=1;fontColor=#FFFFFF;fontStyle=0" parent="1" vertex="1">
          <mxGeometry x="639.9999999999993" y="400.0000000000001" width="120" height="60" as="geometry" />
        </mxCell>
        <mxCell id="51" value="WORK&#xa;PACKAGE 2" style="whiteSpace=wrap;rounded=1;fillColor=#999999;strokeColor=none;shadow=1;fontColor=#FFFFFF;fontStyle=0" parent="1" vertex="1">
          <mxGeometry x="639.9999999999995" y="480.0000000000001" width="120" height="60" as="geometry" />
        </mxCell>
        <mxCell id="52" value="WORK&#xa;PACKAGE 3" style="whiteSpace=wrap;rounded=1;fillColor=#999999;strokeColor=none;shadow=1;fontColor=#FFFFFF;fontStyle=0" parent="1" vertex="1">
          <mxGeometry x="639.9999999999995" y="560.0000000000001" width="120" height="60" as="geometry" />
        </mxCell>
        <mxCell id="53" value="WORK&#xa;PACKAGE 4" style="whiteSpace=wrap;rounded=1;fillColor=#999999;strokeColor=none;shadow=1;fontColor=#FFFFFF;fontStyle=0" parent="1" vertex="1">
          <mxGeometry x="639.9999999999997" y="640.0000000000001" width="120" height="60" as="geometry" />
        </mxCell>
        <mxCell id="54" value="WORK&#xa;PACKAGE 5" style="whiteSpace=wrap;rounded=1;fillColor=#999999;strokeColor=none;shadow=1;fontColor=#FFFFFF;fontStyle=0" parent="1" vertex="1">
          <mxGeometry x="639.9999999999998" y="720.0000000000001" width="120" height="60" as="geometry" />
        </mxCell>
        <mxCell id="103" value="" style="edgeStyle=elbowEdgeStyle;elbow=vertical;rounded=0;fontColor=#000000;endArrow=none;endFill=0;strokeWidth=8;strokeColor=#23445D;" parent="1" source="3" target="10" edge="1">
          <mxGeometry width="100" height="100" relative="1" as="geometry">
            <mxPoint x="20" y="290" as="sourcePoint" />
            <mxPoint x="120" y="190" as="targetPoint" />
          </mxGeometry>
        </mxCell>
        <mxCell id="104" value="" style="edgeStyle=elbowEdgeStyle;elbow=vertical;rounded=0;fontColor=#000000;endArrow=none;endFill=0;strokeWidth=8;strokeColor=#23445D;" parent="1" source="3" target="12" edge="1">
          <mxGeometry width="100" height="100" relative="1" as="geometry">
            <mxPoint x="360" y="290" as="sourcePoint" />
            <mxPoint x="460" y="190" as="targetPoint" />
          </mxGeometry>
        </mxCell>
        <mxCell id="105" value="" style="edgeStyle=elbowEdgeStyle;elbow=horizontal;rounded=0;fontColor=#000000;endArrow=none;endFill=0;strokeWidth=8;strokeColor=#23445D;" parent="1" source="10" target="23" edge="1">
          <mxGeometry width="100" height="100" relative="1" as="geometry">
            <mxPoint x="10" y="480" as="sourcePoint" />
            <mxPoint x="110" y="380" as="targetPoint" />
            <Array as="points">
              <mxPoint x="50" y="380" />
            </Array>
          </mxGeometry>
        </mxCell>
        <mxCell id="106" value="" style="edgeStyle=elbowEdgeStyle;elbow=horizontal;rounded=0;fontColor=#000000;endArrow=none;endFill=0;strokeWidth=8;strokeColor=#23445D;" parent="1" source="10" target="24" edge="1">
          <mxGeometry width="100" height="100" relative="1" as="geometry">
            <mxPoint x="80" y="340" as="sourcePoint" />
            <mxPoint x="80" y="440" as="targetPoint" />
            <Array as="points">
              <mxPoint x="50" y="400" />
            </Array>
          </mxGeometry>
        </mxCell>
        <mxCell id="107" value="" style="edgeStyle=elbowEdgeStyle;elbow=horizontal;rounded=0;fontColor=#000000;endArrow=none;endFill=0;strokeWidth=8;strokeColor=#23445D;" parent="1" source="10" target="27" edge="1">
          <mxGeometry width="100" height="100" relative="1" as="geometry">
            <mxPoint x="80" y="340" as="sourcePoint" />
            <mxPoint x="80" y="440" as="targetPoint" />
            <Array as="points">
              <mxPoint x="50" y="540" />
            </Array>
          </mxGeometry>
        </mxCell>
        <mxCell id="109" value="" style="edgeStyle=elbowEdgeStyle;elbow=horizontal;rounded=0;fontColor=#000000;endArrow=none;endFill=0;strokeWidth=8;strokeColor=#23445D;" parent="1" source="10" target="26" edge="1">
          <mxGeometry width="100" height="100" relative="1" as="geometry">
            <mxPoint x="100" y="360" as="sourcePoint" />
            <mxPoint x="100" y="460" as="targetPoint" />
            <Array as="points">
              <mxPoint x="50" y="410" />
            </Array>
          </mxGeometry>
        </mxCell>
        <mxCell id="110" value="" style="edgeStyle=elbowEdgeStyle;elbow=horizontal;rounded=0;fontColor=#000000;endArrow=none;endFill=0;strokeWidth=8;strokeColor=#23445D;" parent="1" source="10" target="25" edge="1">
          <mxGeometry width="100" height="100" relative="1" as="geometry">
            <mxPoint x="110" y="370" as="sourcePoint" />
            <mxPoint x="110" y="470" as="targetPoint" />
            <Array as="points">
              <mxPoint x="50" y="430" />
            </Array>
          </mxGeometry>
        </mxCell>
        <mxCell id="111" value="" style="edgeStyle=elbowEdgeStyle;elbow=horizontal;rounded=0;fontColor=#000000;endArrow=none;endFill=0;strokeWidth=8;strokeColor=#23445D;" parent="1" target="38" edge="1">
          <mxGeometry width="100" height="100" relative="1" as="geometry">
            <mxPoint x="260" y="330.0000000000004" as="sourcePoint" />
            <mxPoint x="260" y="430.0000000000004" as="targetPoint" />
            <Array as="points">
              <mxPoint x="250" y="380" />
            </Array>
          </mxGeometry>
        </mxCell>
        <mxCell id="112" value="" style="edgeStyle=elbowEdgeStyle;elbow=horizontal;rounded=0;fontColor=#000000;endArrow=none;endFill=0;strokeWidth=8;strokeColor=#23445D;" parent="1" source="12" target="39" edge="1">
          <mxGeometry width="100" height="100" relative="1" as="geometry">
            <mxPoint x="260" y="330.0000000000004" as="sourcePoint" />
            <mxPoint x="260" y="510.0000000000004" as="targetPoint" />
            <Array as="points">
              <mxPoint x="250" y="420" />
            </Array>
          </mxGeometry>
        </mxCell>
        <mxCell id="113" value="" style="edgeStyle=elbowEdgeStyle;elbow=horizontal;rounded=0;fontColor=#000000;endArrow=none;endFill=0;strokeWidth=8;strokeColor=#23445D;" parent="1" source="12" target="42" edge="1">
          <mxGeometry width="100" height="100" relative="1" as="geometry">
            <mxPoint x="260" y="330.0000000000004" as="sourcePoint" />
            <mxPoint x="260.00000000000045" y="750.0000000000003" as="targetPoint" />
            <Array as="points">
              <mxPoint x="250" y="540" />
            </Array>
          </mxGeometry>
        </mxCell>
        <mxCell id="114" value="" style="edgeStyle=elbowEdgeStyle;elbow=horizontal;rounded=0;fontColor=#000000;endArrow=none;endFill=0;strokeWidth=8;strokeColor=#23445D;" parent="1" source="12" target="41" edge="1">
          <mxGeometry width="100" height="100" relative="1" as="geometry">
            <mxPoint x="260" y="330.0000000000004" as="sourcePoint" />
            <mxPoint x="260.0000000000002" y="670.0000000000003" as="targetPoint" />
            <Array as="points">
              <mxPoint x="250" y="500" />
            </Array>
          </mxGeometry>
        </mxCell>
        <mxCell id="115" value="" style="edgeStyle=elbowEdgeStyle;elbow=horizontal;rounded=0;fontColor=#000000;endArrow=none;endFill=0;strokeWidth=8;strokeColor=#23445D;" parent="1" source="12" target="40" edge="1">
          <mxGeometry width="100" height="100" relative="1" as="geometry">
            <mxPoint x="260" y="330.0000000000004" as="sourcePoint" />
            <mxPoint x="260" y="590.0000000000003" as="targetPoint" />
            <Array as="points">
              <mxPoint x="250" y="460" />
            </Array>
          </mxGeometry>
        </mxCell>
        <mxCell id="116" value="" style="edgeStyle=elbowEdgeStyle;elbow=vertical;rounded=0;fontColor=#000000;endArrow=none;endFill=0;strokeWidth=8;strokeColor=#23445D;" parent="1" source="4" target="43" edge="1">
          <mxGeometry width="100" height="100" relative="1" as="geometry">
            <mxPoint x="240" y="239.99999999999977" as="sourcePoint" />
            <mxPoint x="140" y="310" as="targetPoint" />
          </mxGeometry>
        </mxCell>
        <mxCell id="117" value="" style="edgeStyle=elbowEdgeStyle;elbow=vertical;rounded=0;fontColor=#000000;endArrow=none;endFill=0;strokeWidth=8;strokeColor=#23445D;" parent="1" source="4" target="44" edge="1">
          <mxGeometry width="100" height="100" relative="1" as="geometry">
            <mxPoint x="240" y="239.99999999999977" as="sourcePoint" />
            <mxPoint x="340" y="310" as="targetPoint" />
          </mxGeometry>
        </mxCell>
        <mxCell id="118" value="" style="edgeStyle=elbowEdgeStyle;elbow=horizontal;rounded=0;fontColor=#000000;endArrow=none;endFill=0;strokeWidth=8;strokeColor=#23445D;" parent="1" source="43" target="45" edge="1">
          <mxGeometry width="100" height="100" relative="1" as="geometry">
            <mxPoint x="420" y="330.00000000000045" as="sourcePoint" />
            <mxPoint x="429.99999999999955" y="430" as="targetPoint" />
            <Array as="points">
              <mxPoint x="420" y="380" />
            </Array>
          </mxGeometry>
        </mxCell>
        <mxCell id="119" value="" style="edgeStyle=elbowEdgeStyle;elbow=horizontal;rounded=0;fontColor=#000000;endArrow=none;endFill=0;strokeWidth=8;strokeColor=#23445D;" parent="1" source="43" target="46" edge="1">
          <mxGeometry width="100" height="100" relative="1" as="geometry">
            <mxPoint x="430" y="330" as="sourcePoint" />
            <mxPoint x="429.9999999999998" y="510" as="targetPoint" />
            <Array as="points">
              <mxPoint x="420" y="420" />
            </Array>
          </mxGeometry>
        </mxCell>
        <mxCell id="120" value="" style="edgeStyle=elbowEdgeStyle;elbow=horizontal;rounded=0;fontColor=#000000;endArrow=none;endFill=0;strokeWidth=8;strokeColor=#23445D;" parent="1" source="43" target="49" edge="1">
          <mxGeometry width="100" height="100" relative="1" as="geometry">
            <mxPoint x="430" y="330" as="sourcePoint" />
            <mxPoint x="430" y="750" as="targetPoint" />
            <Array as="points">
              <mxPoint x="420" y="550" />
            </Array>
          </mxGeometry>
        </mxCell>
        <mxCell id="121" value="" style="edgeStyle=elbowEdgeStyle;elbow=horizontal;rounded=0;fontColor=#000000;endArrow=none;endFill=0;strokeWidth=8;strokeColor=#23445D;" parent="1" source="43" target="48" edge="1">
          <mxGeometry width="100" height="100" relative="1" as="geometry">
            <mxPoint x="430" y="330" as="sourcePoint" />
            <mxPoint x="430" y="670" as="targetPoint" />
            <Array as="points">
              <mxPoint x="420" y="500" />
            </Array>
          </mxGeometry>
        </mxCell>
        <mxCell id="122" value="" style="edgeStyle=elbowEdgeStyle;elbow=horizontal;rounded=0;fontColor=#000000;endArrow=none;endFill=0;strokeWidth=8;strokeColor=#23445D;" parent="1" source="43" target="47" edge="1">
          <mxGeometry width="100" height="100" relative="1" as="geometry">
            <mxPoint x="430" y="330" as="sourcePoint" />
            <mxPoint x="429.9999999999998" y="590" as="targetPoint" />
            <Array as="points">
              <mxPoint x="420" y="470" />
            </Array>
          </mxGeometry>
        </mxCell>
        <mxCell id="123" value="" style="edgeStyle=elbowEdgeStyle;elbow=horizontal;rounded=0;fontColor=#000000;endArrow=none;endFill=0;strokeWidth=8;strokeColor=#23445D;" parent="1" source="44" target="50" edge="1">
          <mxGeometry width="100" height="100" relative="1" as="geometry">
            <mxPoint x="610" y="330.00000000000045" as="sourcePoint" />
            <mxPoint x="619.9999999999995" y="430" as="targetPoint" />
            <Array as="points">
              <mxPoint x="620" y="380" />
            </Array>
          </mxGeometry>
        </mxCell>
        <mxCell id="124" value="" style="edgeStyle=elbowEdgeStyle;elbow=horizontal;rounded=0;fontColor=#000000;endArrow=none;endFill=0;strokeWidth=8;strokeColor=#23445D;" parent="1" source="44" target="51" edge="1">
          <mxGeometry width="100" height="100" relative="1" as="geometry">
            <mxPoint x="620" y="330" as="sourcePoint" />
            <mxPoint x="619.9999999999998" y="510" as="targetPoint" />
            <Array as="points">
              <mxPoint x="620" y="420" />
            </Array>
          </mxGeometry>
        </mxCell>
        <mxCell id="125" value="" style="edgeStyle=elbowEdgeStyle;elbow=horizontal;rounded=0;fontColor=#000000;endArrow=none;endFill=0;strokeWidth=8;strokeColor=#23445D;" parent="1" source="44" target="54" edge="1">
          <mxGeometry width="100" height="100" relative="1" as="geometry">
            <mxPoint x="620" y="330" as="sourcePoint" />
            <mxPoint x="620" y="750" as="targetPoint" />
            <Array as="points">
              <mxPoint x="620" y="540" />
            </Array>
          </mxGeometry>
        </mxCell>
        <mxCell id="126" value="" style="edgeStyle=elbowEdgeStyle;elbow=horizontal;rounded=0;fontColor=#000000;endArrow=none;endFill=0;strokeWidth=8;strokeColor=#23445D;" parent="1" source="44" target="53" edge="1">
          <mxGeometry width="100" height="100" relative="1" as="geometry">
            <mxPoint x="620" y="330" as="sourcePoint" />
            <mxPoint x="620" y="670" as="targetPoint" />
            <Array as="points">
              <mxPoint x="620" y="500" />
            </Array>
          </mxGeometry>
        </mxCell>
        <mxCell id="127" value="" style="edgeStyle=elbowEdgeStyle;elbow=horizontal;rounded=0;fontColor=#000000;endArrow=none;endFill=0;strokeWidth=8;strokeColor=#23445D;" parent="1" source="44" target="52" edge="1">
          <mxGeometry width="100" height="100" relative="1" as="geometry">
            <mxPoint x="620" y="330" as="sourcePoint" />
            <mxPoint x="619.9999999999998" y="590" as="targetPoint" />
            <Array as="points">
              <mxPoint x="620" y="470" />
            </Array>
          </mxGeometry>
        </mxCell>
        <mxCell id="133" value="SUB-TASK 1" style="whiteSpace=wrap;rounded=1;fillColor=#12AAB5;strokeColor=none;shadow=1;fontColor=#FFFFFF;" parent="1" vertex="1">
          <mxGeometry x="809.9999999999998" y="300.0000000000001" width="120" height="60" as="geometry" />
        </mxCell>
        <mxCell id="134" value="SUB-TASK 2" style="whiteSpace=wrap;rounded=1;fillColor=#12AAB5;strokeColor=none;shadow=1;fontColor=#FFFFFF;" parent="1" vertex="1">
          <mxGeometry x="1009.9999999999998" y="300.0000000000001" width="120" height="60" as="geometry" />
        </mxCell>
        <mxCell id="135" value="WORK&#xa;PACKAGE 1" style="whiteSpace=wrap;rounded=1;fillColor=#999999;strokeColor=none;shadow=1;fontColor=#FFFFFF;fontStyle=0" parent="1" vertex="1">
          <mxGeometry x="809.9999999999998" y="400.0000000000001" width="120" height="60" as="geometry" />
        </mxCell>
        <mxCell id="136" value="WORK&#xa;PACKAGE 2" style="whiteSpace=wrap;rounded=1;fillColor=#999999;strokeColor=none;shadow=1;fontColor=#FFFFFF;fontStyle=0" parent="1" vertex="1">
          <mxGeometry x="809.9999999999999" y="480.0000000000001" width="120" height="60" as="geometry" />
        </mxCell>
        <mxCell id="137" value="WORK&#xa;PACKAGE 3" style="whiteSpace=wrap;rounded=1;fillColor=#999999;strokeColor=none;shadow=1;fontColor=#FFFFFF;fontStyle=0" parent="1" vertex="1">
          <mxGeometry x="809.9999999999998" y="560.0000000000001" width="120" height="60" as="geometry" />
        </mxCell>
        <mxCell id="138" value="WORK&#xa;PACKAGE 4" style="whiteSpace=wrap;rounded=1;fillColor=#999999;strokeColor=none;shadow=1;fontColor=#FFFFFF;fontStyle=0" parent="1" vertex="1">
          <mxGeometry x="810" y="640.0000000000001" width="120" height="60" as="geometry" />
        </mxCell>
        <mxCell id="139" value="WORK&#xa;PACKAGE 5" style="whiteSpace=wrap;rounded=1;fillColor=#999999;strokeColor=none;shadow=1;fontColor=#FFFFFF;fontStyle=0" parent="1" vertex="1">
          <mxGeometry x="810.0000000000001" y="720.0000000000001" width="120" height="60" as="geometry" />
        </mxCell>
        <mxCell id="140" value="WORK&#xa;PACKAGE 1" style="whiteSpace=wrap;rounded=1;fillColor=#999999;strokeColor=none;shadow=1;fontColor=#FFFFFF;fontStyle=0" parent="1" vertex="1">
          <mxGeometry x="1009.9999999999993" y="400.0000000000001" width="120" height="60" as="geometry" />
        </mxCell>
        <mxCell id="141" value="WORK&#xa;PACKAGE 2" style="whiteSpace=wrap;rounded=1;fillColor=#999999;strokeColor=none;shadow=1;fontColor=#FFFFFF;fontStyle=0" parent="1" vertex="1">
          <mxGeometry x="1009.9999999999995" y="480.0000000000001" width="120" height="60" as="geometry" />
        </mxCell>
        <mxCell id="142" value="WORK&#xa;PACKAGE 3" style="whiteSpace=wrap;rounded=1;fillColor=#999999;strokeColor=none;shadow=1;fontColor=#FFFFFF;fontStyle=0" parent="1" vertex="1">
          <mxGeometry x="1009.9999999999995" y="560.0000000000001" width="120" height="60" as="geometry" />
        </mxCell>
        <mxCell id="143" value="WORK&#xa;PACKAGE 4" style="whiteSpace=wrap;rounded=1;fillColor=#999999;strokeColor=none;shadow=1;fontColor=#FFFFFF;fontStyle=0" parent="1" vertex="1">
          <mxGeometry x="1009.9999999999997" y="640.0000000000001" width="120" height="60" as="geometry" />
        </mxCell>
        <mxCell id="144" value="WORK&#xa;PACKAGE 5" style="whiteSpace=wrap;rounded=1;fillColor=#999999;strokeColor=none;shadow=1;fontColor=#FFFFFF;fontStyle=0" parent="1" vertex="1">
          <mxGeometry x="1009.9999999999998" y="720.0000000000001" width="120" height="60" as="geometry" />
        </mxCell>
        <mxCell id="145" value="" style="edgeStyle=elbowEdgeStyle;elbow=horizontal;rounded=0;fontColor=#000000;endArrow=none;endFill=0;strokeWidth=8;strokeColor=#23445D;" parent="1" source="133" target="135" edge="1">
          <mxGeometry width="100" height="100" relative="1" as="geometry">
            <mxPoint x="790" y="330.00000000000045" as="sourcePoint" />
            <mxPoint x="799.9999999999995" y="430" as="targetPoint" />
            <Array as="points">
              <mxPoint x="790" y="380" />
            </Array>
          </mxGeometry>
        </mxCell>
        <mxCell id="146" value="" style="edgeStyle=elbowEdgeStyle;elbow=horizontal;rounded=0;fontColor=#000000;endArrow=none;endFill=0;strokeWidth=8;strokeColor=#23445D;" parent="1" source="133" target="136" edge="1">
          <mxGeometry width="100" height="100" relative="1" as="geometry">
            <mxPoint x="800" y="330" as="sourcePoint" />
            <mxPoint x="799.9999999999998" y="510" as="targetPoint" />
            <Array as="points">
              <mxPoint x="790" y="420" />
            </Array>
          </mxGeometry>
        </mxCell>
        <mxCell id="147" value="" style="edgeStyle=elbowEdgeStyle;elbow=horizontal;rounded=0;fontColor=#000000;endArrow=none;endFill=0;strokeWidth=8;strokeColor=#23445D;" parent="1" source="133" target="139" edge="1">
          <mxGeometry width="100" height="100" relative="1" as="geometry">
            <mxPoint x="800" y="330" as="sourcePoint" />
            <mxPoint x="800" y="750" as="targetPoint" />
            <Array as="points">
              <mxPoint x="790" y="550" />
            </Array>
          </mxGeometry>
        </mxCell>
        <mxCell id="148" value="" style="edgeStyle=elbowEdgeStyle;elbow=horizontal;rounded=0;fontColor=#000000;endArrow=none;endFill=0;strokeWidth=8;strokeColor=#23445D;" parent="1" source="133" target="138" edge="1">
          <mxGeometry width="100" height="100" relative="1" as="geometry">
            <mxPoint x="800" y="330" as="sourcePoint" />
            <mxPoint x="800" y="670" as="targetPoint" />
            <Array as="points">
              <mxPoint x="790" y="500" />
            </Array>
          </mxGeometry>
        </mxCell>
        <mxCell id="149" value="" style="edgeStyle=elbowEdgeStyle;elbow=horizontal;rounded=0;fontColor=#000000;endArrow=none;endFill=0;strokeWidth=8;strokeColor=#23445D;" parent="1" source="133" target="137" edge="1">
          <mxGeometry width="100" height="100" relative="1" as="geometry">
            <mxPoint x="800" y="330" as="sourcePoint" />
            <mxPoint x="799.9999999999998" y="590" as="targetPoint" />
            <Array as="points">
              <mxPoint x="790" y="470" />
            </Array>
          </mxGeometry>
        </mxCell>
        <mxCell id="150" value="" style="edgeStyle=elbowEdgeStyle;elbow=horizontal;rounded=0;fontColor=#000000;endArrow=none;endFill=0;strokeWidth=8;strokeColor=#23445D;" parent="1" source="134" target="140" edge="1">
          <mxGeometry width="100" height="100" relative="1" as="geometry">
            <mxPoint x="980" y="330.00000000000045" as="sourcePoint" />
            <mxPoint x="989.9999999999995" y="430" as="targetPoint" />
            <Array as="points">
              <mxPoint x="990" y="380" />
            </Array>
          </mxGeometry>
        </mxCell>
        <mxCell id="151" value="" style="edgeStyle=elbowEdgeStyle;elbow=horizontal;rounded=0;fontColor=#000000;endArrow=none;endFill=0;strokeWidth=8;strokeColor=#23445D;" parent="1" source="134" target="141" edge="1">
          <mxGeometry width="100" height="100" relative="1" as="geometry">
            <mxPoint x="990" y="330" as="sourcePoint" />
            <mxPoint x="989.9999999999998" y="510" as="targetPoint" />
            <Array as="points">
              <mxPoint x="990" y="420" />
            </Array>
          </mxGeometry>
        </mxCell>
        <mxCell id="152" value="" style="edgeStyle=elbowEdgeStyle;elbow=horizontal;rounded=0;fontColor=#000000;endArrow=none;endFill=0;strokeWidth=8;strokeColor=#23445D;" parent="1" source="134" target="144" edge="1">
          <mxGeometry width="100" height="100" relative="1" as="geometry">
            <mxPoint x="990" y="330" as="sourcePoint" />
            <mxPoint x="990" y="750" as="targetPoint" />
            <Array as="points">
              <mxPoint x="990" y="540" />
            </Array>
          </mxGeometry>
        </mxCell>
        <mxCell id="153" value="" style="edgeStyle=elbowEdgeStyle;elbow=horizontal;rounded=0;fontColor=#000000;endArrow=none;endFill=0;strokeWidth=8;strokeColor=#23445D;" parent="1" source="134" target="143" edge="1">
          <mxGeometry width="100" height="100" relative="1" as="geometry">
            <mxPoint x="990" y="330" as="sourcePoint" />
            <mxPoint x="990" y="670" as="targetPoint" />
            <Array as="points">
              <mxPoint x="990" y="500" />
            </Array>
          </mxGeometry>
        </mxCell>
        <mxCell id="154" value="" style="edgeStyle=elbowEdgeStyle;elbow=horizontal;rounded=0;fontColor=#000000;endArrow=none;endFill=0;strokeWidth=8;strokeColor=#23445D;" parent="1" source="134" target="142" edge="1">
          <mxGeometry width="100" height="100" relative="1" as="geometry">
            <mxPoint x="990" y="330" as="sourcePoint" />
            <mxPoint x="989.9999999999998" y="590" as="targetPoint" />
            <Array as="points">
              <mxPoint x="990" y="470" />
            </Array>
          </mxGeometry>
        </mxCell>
        <mxCell id="155" value="SUB-TASK 1" style="whiteSpace=wrap;rounded=1;fillColor=#12AAB5;strokeColor=none;shadow=1;fontColor=#FFFFFF;" parent="1" vertex="1">
          <mxGeometry x="1179.9999999999998" y="300.0000000000002" width="120" height="60" as="geometry" />
        </mxCell>
        <mxCell id="156" value="SUB-TASK 2" style="whiteSpace=wrap;rounded=1;fillColor=#12AAB5;strokeColor=none;shadow=1;fontColor=#FFFFFF;" parent="1" vertex="1">
          <mxGeometry x="1379.9999999999998" y="300.0000000000002" width="120" height="60" as="geometry" />
        </mxCell>
        <mxCell id="157" value="WORK&#xa;PACKAGE 1" style="whiteSpace=wrap;rounded=1;fillColor=#999999;strokeColor=none;shadow=1;fontColor=#FFFFFF;fontStyle=0" parent="1" vertex="1">
          <mxGeometry x="1179.9999999999998" y="400.0000000000002" width="120" height="60" as="geometry" />
        </mxCell>
        <mxCell id="158" value="WORK&#xa;PACKAGE 2" style="whiteSpace=wrap;rounded=1;fillColor=#999999;strokeColor=none;shadow=1;fontColor=#FFFFFF;fontStyle=0" parent="1" vertex="1">
          <mxGeometry x="1180" y="480.0000000000002" width="120" height="60" as="geometry" />
        </mxCell>
        <mxCell id="159" value="WORK&#xa;PACKAGE 3" style="whiteSpace=wrap;rounded=1;fillColor=#999999;strokeColor=none;shadow=1;fontColor=#FFFFFF;fontStyle=0" parent="1" vertex="1">
          <mxGeometry x="1179.9999999999998" y="560.0000000000002" width="120" height="60" as="geometry" />
        </mxCell>
        <mxCell id="160" value="WORK&#xa;PACKAGE 4" style="whiteSpace=wrap;rounded=1;fillColor=#999999;strokeColor=none;shadow=1;fontColor=#FFFFFF;fontStyle=0" parent="1" vertex="1">
          <mxGeometry x="1180" y="640.0000000000002" width="120" height="60" as="geometry" />
        </mxCell>
        <mxCell id="161" value="WORK&#xa;PACKAGE 5" style="whiteSpace=wrap;rounded=1;fillColor=#999999;strokeColor=none;shadow=1;fontColor=#FFFFFF;fontStyle=0" parent="1" vertex="1">
          <mxGeometry x="1180" y="720.0000000000002" width="120" height="60" as="geometry" />
        </mxCell>
        <mxCell id="162" value="WORK&#xa;PACKAGE 1" style="whiteSpace=wrap;rounded=1;fillColor=#999999;strokeColor=none;shadow=1;fontColor=#FFFFFF;fontStyle=0" parent="1" vertex="1">
          <mxGeometry x="1379.9999999999993" y="400.0000000000002" width="120" height="60" as="geometry" />
        </mxCell>
        <mxCell id="163" value="WORK&#xa;PACKAGE 2" style="whiteSpace=wrap;rounded=1;fillColor=#999999;strokeColor=none;shadow=1;fontColor=#FFFFFF;fontStyle=0" parent="1" vertex="1">
          <mxGeometry x="1379.9999999999995" y="480.0000000000002" width="120" height="60" as="geometry" />
        </mxCell>
        <mxCell id="164" value="WORK&#xa;PACKAGE 3" style="whiteSpace=wrap;rounded=1;fillColor=#999999;strokeColor=none;shadow=1;fontColor=#FFFFFF;fontStyle=0" parent="1" vertex="1">
          <mxGeometry x="1379.9999999999995" y="560.0000000000002" width="120" height="60" as="geometry" />
        </mxCell>
        <mxCell id="165" value="WORK&#xa;PACKAGE 4" style="whiteSpace=wrap;rounded=1;fillColor=#999999;strokeColor=none;shadow=1;fontColor=#FFFFFF;fontStyle=0" parent="1" vertex="1">
          <mxGeometry x="1379.9999999999995" y="640.0000000000002" width="120" height="60" as="geometry" />
        </mxCell>
        <mxCell id="166" value="WORK&#xa;PACKAGE 5" style="whiteSpace=wrap;rounded=1;fillColor=#999999;strokeColor=none;shadow=1;fontColor=#FFFFFF;fontStyle=0" parent="1" vertex="1">
          <mxGeometry x="1379.9999999999998" y="720.0000000000002" width="120" height="60" as="geometry" />
        </mxCell>
        <mxCell id="167" value="" style="edgeStyle=elbowEdgeStyle;elbow=horizontal;rounded=0;fontColor=#000000;endArrow=none;endFill=0;strokeWidth=8;strokeColor=#23445D;" parent="1" source="155" target="157" edge="1">
          <mxGeometry width="100" height="100" relative="1" as="geometry">
            <mxPoint x="1160" y="330.00000000000057" as="sourcePoint" />
            <mxPoint x="1169.9999999999995" y="430.0000000000001" as="targetPoint" />
            <Array as="points">
              <mxPoint x="1160" y="380.0000000000001" />
            </Array>
          </mxGeometry>
        </mxCell>
        <mxCell id="168" value="" style="edgeStyle=elbowEdgeStyle;elbow=horizontal;rounded=0;fontColor=#000000;endArrow=none;endFill=0;strokeWidth=8;strokeColor=#23445D;" parent="1" source="155" target="158" edge="1">
          <mxGeometry width="100" height="100" relative="1" as="geometry">
            <mxPoint x="1170" y="330.0000000000001" as="sourcePoint" />
            <mxPoint x="1169.9999999999998" y="510.0000000000001" as="targetPoint" />
            <Array as="points">
              <mxPoint x="1160" y="420.0000000000001" />
            </Array>
          </mxGeometry>
        </mxCell>
        <mxCell id="169" value="" style="edgeStyle=elbowEdgeStyle;elbow=horizontal;rounded=0;fontColor=#000000;endArrow=none;endFill=0;strokeWidth=8;strokeColor=#23445D;" parent="1" source="155" target="161" edge="1">
          <mxGeometry width="100" height="100" relative="1" as="geometry">
            <mxPoint x="1170" y="330.0000000000001" as="sourcePoint" />
            <mxPoint x="1170" y="750.0000000000001" as="targetPoint" />
            <Array as="points">
              <mxPoint x="1160" y="550.0000000000001" />
            </Array>
          </mxGeometry>
        </mxCell>
        <mxCell id="170" value="" style="edgeStyle=elbowEdgeStyle;elbow=horizontal;rounded=0;fontColor=#000000;endArrow=none;endFill=0;strokeWidth=8;strokeColor=#23445D;" parent="1" source="155" target="160" edge="1">
          <mxGeometry width="100" height="100" relative="1" as="geometry">
            <mxPoint x="1170" y="330.0000000000001" as="sourcePoint" />
            <mxPoint x="1170" y="670.0000000000001" as="targetPoint" />
            <Array as="points">
              <mxPoint x="1160" y="500.0000000000001" />
            </Array>
          </mxGeometry>
        </mxCell>
        <mxCell id="171" value="" style="edgeStyle=elbowEdgeStyle;elbow=horizontal;rounded=0;fontColor=#000000;endArrow=none;endFill=0;strokeWidth=8;strokeColor=#23445D;" parent="1" edge="1">
          <mxGeometry width="100" height="100" relative="1" as="geometry">
            <mxPoint x="1183" y="330.0000000000002" as="sourcePoint" />
            <mxPoint x="1183" y="590.0000000000002" as="targetPoint" />
            <Array as="points">
              <mxPoint x="1163" y="470.0000000000001" />
            </Array>
          </mxGeometry>
        </mxCell>
        <mxCell id="172" value="" style="edgeStyle=elbowEdgeStyle;elbow=horizontal;rounded=0;fontColor=#000000;endArrow=none;endFill=0;strokeWidth=8;strokeColor=#23445D;" parent="1" source="156" target="162" edge="1">
          <mxGeometry width="100" height="100" relative="1" as="geometry">
            <mxPoint x="1350" y="330.00000000000057" as="sourcePoint" />
            <mxPoint x="1359.9999999999995" y="430.0000000000001" as="targetPoint" />
            <Array as="points">
              <mxPoint x="1360" y="380.0000000000001" />
            </Array>
          </mxGeometry>
        </mxCell>
        <mxCell id="173" value="" style="edgeStyle=elbowEdgeStyle;elbow=horizontal;rounded=0;fontColor=#000000;endArrow=none;endFill=0;strokeWidth=8;strokeColor=#23445D;" parent="1" source="156" target="163" edge="1">
          <mxGeometry width="100" height="100" relative="1" as="geometry">
            <mxPoint x="1360" y="330.0000000000001" as="sourcePoint" />
            <mxPoint x="1359.9999999999998" y="510.0000000000001" as="targetPoint" />
            <Array as="points">
              <mxPoint x="1360" y="420.0000000000001" />
            </Array>
          </mxGeometry>
        </mxCell>
        <mxCell id="174" value="" style="edgeStyle=elbowEdgeStyle;elbow=horizontal;rounded=0;fontColor=#000000;endArrow=none;endFill=0;strokeWidth=8;strokeColor=#23445D;" parent="1" source="156" target="166" edge="1">
          <mxGeometry width="100" height="100" relative="1" as="geometry">
            <mxPoint x="1360" y="330.0000000000001" as="sourcePoint" />
            <mxPoint x="1360" y="750.0000000000001" as="targetPoint" />
            <Array as="points">
              <mxPoint x="1360" y="540.0000000000001" />
            </Array>
          </mxGeometry>
        </mxCell>
        <mxCell id="175" value="" style="edgeStyle=elbowEdgeStyle;elbow=horizontal;rounded=0;fontColor=#000000;endArrow=none;endFill=0;strokeWidth=8;strokeColor=#23445D;" parent="1" source="156" target="165" edge="1">
          <mxGeometry width="100" height="100" relative="1" as="geometry">
            <mxPoint x="1360" y="330.0000000000001" as="sourcePoint" />
            <mxPoint x="1360" y="670.0000000000001" as="targetPoint" />
            <Array as="points">
              <mxPoint x="1360" y="500.0000000000001" />
            </Array>
          </mxGeometry>
        </mxCell>
        <mxCell id="176" value="" style="edgeStyle=elbowEdgeStyle;elbow=horizontal;rounded=0;fontColor=#000000;endArrow=none;endFill=0;strokeWidth=8;strokeColor=#23445D;" parent="1" source="156" target="164" edge="1">
          <mxGeometry width="100" height="100" relative="1" as="geometry">
            <mxPoint x="1360" y="330.0000000000001" as="sourcePoint" />
            <mxPoint x="1359.9999999999998" y="590.0000000000001" as="targetPoint" />
            <Array as="points">
              <mxPoint x="1360" y="470.0000000000001" />
            </Array>
          </mxGeometry>
        </mxCell>
        <mxCell id="199" value="MCC 20" style="whiteSpace=wrap;rounded=1;fillColor=#12AAB5;strokeColor=none;shadow=1;fontColor=#FFFFFF;" parent="1" vertex="1">
          <mxGeometry x="2929.96" y="310" width="50" height="40" as="geometry" />
        </mxCell>
        <mxCell id="221" value="" style="edgeStyle=elbowEdgeStyle;elbow=vertical;rounded=0;fontColor=#000000;endArrow=none;endFill=0;strokeWidth=8;strokeColor=#23445D;" parent="1" source="6" target="133" edge="1">
          <mxGeometry width="100" height="100" relative="1" as="geometry">
            <mxPoint x="780" y="270" as="sourcePoint" />
            <mxPoint x="880" y="170" as="targetPoint" />
          </mxGeometry>
        </mxCell>
        <mxCell id="222" value="" style="edgeStyle=elbowEdgeStyle;elbow=vertical;rounded=0;fontColor=#000000;endArrow=none;endFill=0;strokeWidth=8;strokeColor=#23445D;" parent="1" source="6" target="134" edge="1">
          <mxGeometry width="100" height="100" relative="1" as="geometry">
            <mxPoint x="1030" y="280" as="sourcePoint" />
            <mxPoint x="1130" y="180" as="targetPoint" />
          </mxGeometry>
        </mxCell>
        <mxCell id="223" value="" style="edgeStyle=elbowEdgeStyle;elbow=vertical;rounded=0;fontColor=#000000;endArrow=none;endFill=0;strokeWidth=8;strokeColor=#23445D;" parent="1" source="7" target="155" edge="1">
          <mxGeometry width="100" height="100" relative="1" as="geometry">
            <mxPoint x="1340" y="300" as="sourcePoint" />
            <mxPoint x="1240" y="190" as="targetPoint" />
          </mxGeometry>
        </mxCell>
        <mxCell id="224" value="" style="edgeStyle=elbowEdgeStyle;elbow=vertical;rounded=0;fontColor=#000000;endArrow=none;endFill=0;strokeWidth=8;strokeColor=#23445D;" parent="1" source="7" target="156" edge="1">
          <mxGeometry width="100" height="100" relative="1" as="geometry">
            <mxPoint x="1430" y="290" as="sourcePoint" />
            <mxPoint x="1530" y="190" as="targetPoint" />
          </mxGeometry>
        </mxCell>
        <mxCell id="225" value="" style="edgeStyle=elbowEdgeStyle;elbow=vertical;rounded=0;fontColor=#000000;endArrow=none;endFill=0;strokeWidth=8;strokeColor=#23445D;entryX=0.5;entryY=0;entryDx=0;entryDy=0;" parent="1" source="8" edge="1">
          <mxGeometry width="100" height="100" relative="1" as="geometry">
            <mxPoint x="1550" y="290" as="sourcePoint" />
            <mxPoint x="1645" y="300" as="targetPoint" />
          </mxGeometry>
        </mxCell>
        <mxCell id="227" value="" style="edgeStyle=elbowEdgeStyle;elbow=vertical;rounded=0;fontColor=#000000;endArrow=none;endFill=0;strokeWidth=8;strokeColor=#23445D;" parent="1" source="5" target="199" edge="1">
          <mxGeometry width="100" height="100" relative="1" as="geometry">
            <mxPoint x="2570.04" y="280" as="sourcePoint" />
            <mxPoint x="2670.04" y="180" as="targetPoint" />
            <Array as="points">
              <mxPoint x="2750.04" y="270" />
            </Array>
          </mxGeometry>
        </mxCell>
        <mxCell id="229" value="" style="edgeStyle=elbowEdgeStyle;elbow=vertical;rounded=0;fontColor=#000000;endArrow=none;endFill=0;strokeWidth=8;strokeColor=#23445D;" parent="1" source="2" target="3" edge="1">
          <mxGeometry width="100" height="100" relative="1" as="geometry">
            <mxPoint x="540" y="140" as="sourcePoint" />
            <mxPoint x="640" y="40" as="targetPoint" />
          </mxGeometry>
        </mxCell>
        <mxCell id="230" value="" style="edgeStyle=elbowEdgeStyle;elbow=vertical;rounded=0;fontColor=#000000;endArrow=none;endFill=0;strokeWidth=8;strokeColor=#23445D;" parent="1" source="2" target="4" edge="1">
          <mxGeometry width="100" height="100" relative="1" as="geometry">
            <mxPoint x="550" y="150" as="sourcePoint" />
            <mxPoint x="650" y="50" as="targetPoint" />
          </mxGeometry>
        </mxCell>
        <mxCell id="231" value="" style="edgeStyle=elbowEdgeStyle;elbow=vertical;rounded=0;fontColor=#000000;endArrow=none;endFill=0;strokeWidth=8;strokeColor=#23445D;" parent="1" source="2" target="6" edge="1">
          <mxGeometry width="100" height="100" relative="1" as="geometry">
            <mxPoint x="560" y="160" as="sourcePoint" />
            <mxPoint x="660" y="60" as="targetPoint" />
          </mxGeometry>
        </mxCell>
        <mxCell id="TX3pzebjtwrbGhLkdpQe-234" value="Geb 531" style="whiteSpace=wrap;rounded=1;shadow=1;fillColor=#10739E;strokeColor=none;fontColor=#FFFFFF;fontStyle=1;fontSize=24" vertex="1" parent="1">
          <mxGeometry x="1540" y="30" width="340" height="60" as="geometry" />
        </mxCell>
        <mxCell id="TX3pzebjtwrbGhLkdpQe-242" value="" style="edgeStyle=elbowEdgeStyle;elbow=vertical;rounded=0;fontColor=#000000;endArrow=none;endFill=0;strokeWidth=8;strokeColor=#23445D;entryX=0.5;entryY=0;entryDx=0;entryDy=0;exitX=0.5;exitY=1;exitDx=0;exitDy=0;" edge="1" parent="1" source="TX3pzebjtwrbGhLkdpQe-234" target="8">
          <mxGeometry width="100" height="100" relative="1" as="geometry">
            <mxPoint x="1710" y="100" as="sourcePoint" />
            <mxPoint x="1810" y="170" as="targetPoint" />
          </mxGeometry>
        </mxCell>
        <mxCell id="TX3pzebjtwrbGhLkdpQe-243" value="" style="edgeStyle=elbowEdgeStyle;elbow=vertical;rounded=0;fontColor=#000000;endArrow=none;endFill=0;strokeWidth=8;strokeColor=#23445D;entryX=0.5;entryY=0;entryDx=0;entryDy=0;" edge="1" parent="1" target="7">
          <mxGeometry width="100" height="100" relative="1" as="geometry">
            <mxPoint x="1710" y="120" as="sourcePoint" />
            <mxPoint x="1339.6" y="150" as="targetPoint" />
            <Array as="points">
              <mxPoint x="1530" y="120" />
              <mxPoint x="1710" y="115" />
            </Array>
          </mxGeometry>
        </mxCell>
        <mxCell id="TX3pzebjtwrbGhLkdpQe-244" value="" style="edgeStyle=elbowEdgeStyle;elbow=vertical;rounded=0;fontColor=#000000;endArrow=none;endFill=0;strokeWidth=8;strokeColor=#23445D;exitX=0.5;exitY=0;exitDx=0;exitDy=0;" edge="1" parent="1" source="5">
          <mxGeometry width="100" height="100" relative="1" as="geometry">
            <mxPoint x="2110" y="120" as="sourcePoint" />
            <mxPoint x="1710" y="130" as="targetPoint" />
            <Array as="points">
              <mxPoint x="1930" y="120" />
              <mxPoint x="2110" y="115" />
            </Array>
          </mxGeometry>
        </mxCell>
        <mxCell id="TX3pzebjtwrbGhLkdpQe-245" value="MCC 19" style="whiteSpace=wrap;rounded=1;fillColor=#12AAB5;strokeColor=none;shadow=1;fontColor=#FFFFFF;" vertex="1" parent="1">
          <mxGeometry x="2725.04" y="310" width="50" height="40" as="geometry" />
        </mxCell>
        <mxCell id="TX3pzebjtwrbGhLkdpQe-248" value="FCZ 4001" style="whiteSpace=wrap;rounded=1;fillColor=#12AAB5;strokeColor=none;shadow=1;fontColor=#FFFFFF;" vertex="1" parent="1">
          <mxGeometry x="3259.96" y="380" width="60" height="40" as="geometry" />
        </mxCell>
        <mxCell id="TX3pzebjtwrbGhLkdpQe-250" value="" style="edgeStyle=elbowEdgeStyle;elbow=vertical;rounded=0;fontColor=#000000;endArrow=none;endFill=0;strokeWidth=8;strokeColor=#23445D;entryX=0.5;entryY=0;entryDx=0;entryDy=0;" edge="1" parent="1" target="TX3pzebjtwrbGhLkdpQe-245">
          <mxGeometry width="100" height="100" relative="1" as="geometry">
            <mxPoint x="2750.04" y="260" as="sourcePoint" />
            <mxPoint x="2780.04" y="310" as="targetPoint" />
          </mxGeometry>
        </mxCell>
        <mxCell id="TX3pzebjtwrbGhLkdpQe-255" value="" style="edgeStyle=elbowEdgeStyle;elbow=vertical;rounded=0;fontColor=#000000;endArrow=none;endFill=0;strokeWidth=8;strokeColor=#23445D;entryX=0.5;entryY=0;entryDx=0;entryDy=0;" edge="1" parent="1" target="TX3pzebjtwrbGhLkdpQe-248">
          <mxGeometry width="100" height="100" relative="1" as="geometry">
            <mxPoint x="2750.04" y="270" as="sourcePoint" />
            <mxPoint x="2920.04" y="300" as="targetPoint" />
            <Array as="points">
              <mxPoint x="2830.04" y="270" />
              <mxPoint x="2947.54" y="240" />
            </Array>
          </mxGeometry>
        </mxCell>
        <mxCell id="TX3pzebjtwrbGhLkdpQe-315" value="MCC 18" style="whiteSpace=wrap;rounded=1;fillColor=#12AAB5;strokeColor=none;shadow=1;fontColor=#FFFFFF;" vertex="1" parent="1">
          <mxGeometry x="2215" y="310" width="50" height="40" as="geometry" />
        </mxCell>
        <mxCell id="TX3pzebjtwrbGhLkdpQe-503" style="edgeStyle=orthogonalEdgeStyle;rounded=0;orthogonalLoop=1;jettySize=auto;html=1;entryX=0;entryY=0.5;entryDx=0;entryDy=0;" edge="1" parent="1" source="TX3pzebjtwrbGhLkdpQe-316" target="TX3pzebjtwrbGhLkdpQe-497">
          <mxGeometry relative="1" as="geometry">
            <Array as="points">
              <mxPoint x="2310" y="410" />
              <mxPoint x="2310" y="465" />
            </Array>
          </mxGeometry>
        </mxCell>
        <mxCell id="TX3pzebjtwrbGhLkdpQe-504" style="edgeStyle=orthogonalEdgeStyle;rounded=0;orthogonalLoop=1;jettySize=auto;html=1;entryX=0;entryY=0.5;entryDx=0;entryDy=0;" edge="1" parent="1" source="TX3pzebjtwrbGhLkdpQe-316" target="TX3pzebjtwrbGhLkdpQe-498">
          <mxGeometry relative="1" as="geometry">
            <Array as="points">
              <mxPoint x="2310" y="410" />
              <mxPoint x="2310" y="505" />
            </Array>
          </mxGeometry>
        </mxCell>
        <mxCell id="TX3pzebjtwrbGhLkdpQe-505" style="edgeStyle=orthogonalEdgeStyle;rounded=0;orthogonalLoop=1;jettySize=auto;html=1;entryX=0;entryY=0.5;entryDx=0;entryDy=0;" edge="1" parent="1" source="TX3pzebjtwrbGhLkdpQe-316" target="TX3pzebjtwrbGhLkdpQe-499">
          <mxGeometry relative="1" as="geometry">
            <Array as="points">
              <mxPoint x="2310" y="410" />
              <mxPoint x="2310" y="545" />
            </Array>
          </mxGeometry>
        </mxCell>
        <mxCell id="TX3pzebjtwrbGhLkdpQe-506" style="edgeStyle=orthogonalEdgeStyle;rounded=0;orthogonalLoop=1;jettySize=auto;html=1;entryX=0;entryY=0.5;entryDx=0;entryDy=0;" edge="1" parent="1" source="TX3pzebjtwrbGhLkdpQe-316" target="TX3pzebjtwrbGhLkdpQe-500">
          <mxGeometry relative="1" as="geometry">
            <Array as="points">
              <mxPoint x="2310" y="410" />
              <mxPoint x="2310" y="585" />
            </Array>
          </mxGeometry>
        </mxCell>
        <mxCell id="TX3pzebjtwrbGhLkdpQe-507" style="edgeStyle=orthogonalEdgeStyle;rounded=0;orthogonalLoop=1;jettySize=auto;html=1;entryX=0;entryY=0.5;entryDx=0;entryDy=0;" edge="1" parent="1" source="TX3pzebjtwrbGhLkdpQe-316" target="TX3pzebjtwrbGhLkdpQe-501">
          <mxGeometry relative="1" as="geometry">
            <Array as="points">
              <mxPoint x="2310" y="410" />
              <mxPoint x="2310" y="625" />
            </Array>
          </mxGeometry>
        </mxCell>
        <mxCell id="TX3pzebjtwrbGhLkdpQe-509" style="edgeStyle=orthogonalEdgeStyle;rounded=0;orthogonalLoop=1;jettySize=auto;html=1;entryX=0;entryY=0.5;entryDx=0;entryDy=0;" edge="1" parent="1" source="TX3pzebjtwrbGhLkdpQe-316" target="TX3pzebjtwrbGhLkdpQe-502">
          <mxGeometry relative="1" as="geometry">
            <Array as="points">
              <mxPoint x="2310" y="410" />
              <mxPoint x="2310" y="670" />
            </Array>
          </mxGeometry>
        </mxCell>
        <mxCell id="TX3pzebjtwrbGhLkdpQe-316" value="Rollenbahn 4&#xa;FCR4008" style="whiteSpace=wrap;rounded=1;fillColor=#008a00;strokeColor=#005700;shadow=1;fontColor=#ffffff;fontStyle=0" vertex="1" parent="1">
          <mxGeometry x="2320" y="390" width="80" height="40" as="geometry" />
        </mxCell>
        <mxCell id="TX3pzebjtwrbGhLkdpQe-488" style="edgeStyle=orthogonalEdgeStyle;rounded=0;orthogonalLoop=1;jettySize=auto;html=1;entryX=0;entryY=0.5;entryDx=0;entryDy=0;" edge="1" parent="1" source="TX3pzebjtwrbGhLkdpQe-317" target="TX3pzebjtwrbGhLkdpQe-482">
          <mxGeometry relative="1" as="geometry">
            <Array as="points">
              <mxPoint x="2190" y="410" />
              <mxPoint x="2190" y="465" />
            </Array>
          </mxGeometry>
        </mxCell>
        <mxCell id="TX3pzebjtwrbGhLkdpQe-489" style="edgeStyle=orthogonalEdgeStyle;rounded=0;orthogonalLoop=1;jettySize=auto;html=1;entryX=0;entryY=0.5;entryDx=0;entryDy=0;" edge="1" parent="1" source="TX3pzebjtwrbGhLkdpQe-317" target="TX3pzebjtwrbGhLkdpQe-483">
          <mxGeometry relative="1" as="geometry">
            <Array as="points">
              <mxPoint x="2190" y="410" />
              <mxPoint x="2190" y="505" />
            </Array>
          </mxGeometry>
        </mxCell>
        <mxCell id="TX3pzebjtwrbGhLkdpQe-490" style="edgeStyle=orthogonalEdgeStyle;rounded=0;orthogonalLoop=1;jettySize=auto;html=1;entryX=0;entryY=0.5;entryDx=0;entryDy=0;" edge="1" parent="1" source="TX3pzebjtwrbGhLkdpQe-317" target="TX3pzebjtwrbGhLkdpQe-484">
          <mxGeometry relative="1" as="geometry">
            <Array as="points">
              <mxPoint x="2190" y="410" />
              <mxPoint x="2190" y="545" />
            </Array>
          </mxGeometry>
        </mxCell>
        <mxCell id="TX3pzebjtwrbGhLkdpQe-491" style="edgeStyle=orthogonalEdgeStyle;rounded=0;orthogonalLoop=1;jettySize=auto;html=1;entryX=0;entryY=0.5;entryDx=0;entryDy=0;" edge="1" parent="1" source="TX3pzebjtwrbGhLkdpQe-317" target="TX3pzebjtwrbGhLkdpQe-485">
          <mxGeometry relative="1" as="geometry">
            <Array as="points">
              <mxPoint x="2190" y="410" />
              <mxPoint x="2190" y="585" />
            </Array>
          </mxGeometry>
        </mxCell>
        <mxCell id="TX3pzebjtwrbGhLkdpQe-492" style="edgeStyle=orthogonalEdgeStyle;rounded=0;orthogonalLoop=1;jettySize=auto;html=1;entryX=0;entryY=0.5;entryDx=0;entryDy=0;" edge="1" parent="1" source="TX3pzebjtwrbGhLkdpQe-317" target="TX3pzebjtwrbGhLkdpQe-486">
          <mxGeometry relative="1" as="geometry">
            <Array as="points">
              <mxPoint x="2190" y="410" />
              <mxPoint x="2190" y="625" />
            </Array>
          </mxGeometry>
        </mxCell>
        <mxCell id="TX3pzebjtwrbGhLkdpQe-494" style="edgeStyle=orthogonalEdgeStyle;rounded=0;orthogonalLoop=1;jettySize=auto;html=1;" edge="1" parent="1" source="TX3pzebjtwrbGhLkdpQe-317" target="TX3pzebjtwrbGhLkdpQe-487">
          <mxGeometry relative="1" as="geometry">
            <Array as="points">
              <mxPoint x="2190" y="410" />
              <mxPoint x="2190" y="670" />
            </Array>
          </mxGeometry>
        </mxCell>
        <mxCell id="TX3pzebjtwrbGhLkdpQe-317" value="Rollenbahn 3&#xa;FCR4007" style="whiteSpace=wrap;rounded=1;fillColor=#008a00;strokeColor=#005700;shadow=1;fontColor=#ffffff;fontStyle=0" vertex="1" parent="1">
          <mxGeometry x="2200" y="390" width="80" height="40" as="geometry" />
        </mxCell>
        <mxCell id="TX3pzebjtwrbGhLkdpQe-445" style="edgeStyle=orthogonalEdgeStyle;rounded=0;orthogonalLoop=1;jettySize=auto;html=1;entryX=0;entryY=0.5;entryDx=0;entryDy=0;" edge="1" parent="1" source="TX3pzebjtwrbGhLkdpQe-319" target="TX3pzebjtwrbGhLkdpQe-439">
          <mxGeometry relative="1" as="geometry">
            <Array as="points">
              <mxPoint x="1950" y="410" />
              <mxPoint x="1950" y="465" />
            </Array>
          </mxGeometry>
        </mxCell>
        <mxCell id="TX3pzebjtwrbGhLkdpQe-446" style="edgeStyle=orthogonalEdgeStyle;rounded=0;orthogonalLoop=1;jettySize=auto;html=1;entryX=0;entryY=0.5;entryDx=0;entryDy=0;" edge="1" parent="1" source="TX3pzebjtwrbGhLkdpQe-319" target="TX3pzebjtwrbGhLkdpQe-440">
          <mxGeometry relative="1" as="geometry">
            <Array as="points">
              <mxPoint x="1950" y="410" />
              <mxPoint x="1950" y="505" />
            </Array>
          </mxGeometry>
        </mxCell>
        <mxCell id="TX3pzebjtwrbGhLkdpQe-447" style="edgeStyle=orthogonalEdgeStyle;rounded=0;orthogonalLoop=1;jettySize=auto;html=1;entryX=0;entryY=0.5;entryDx=0;entryDy=0;" edge="1" parent="1" source="TX3pzebjtwrbGhLkdpQe-319" target="TX3pzebjtwrbGhLkdpQe-323">
          <mxGeometry relative="1" as="geometry">
            <Array as="points">
              <mxPoint x="1950" y="410" />
              <mxPoint x="1950" y="590" />
            </Array>
          </mxGeometry>
        </mxCell>
        <mxCell id="TX3pzebjtwrbGhLkdpQe-448" style="edgeStyle=orthogonalEdgeStyle;rounded=0;orthogonalLoop=1;jettySize=auto;html=1;entryX=0;entryY=0.5;entryDx=0;entryDy=0;" edge="1" parent="1" source="TX3pzebjtwrbGhLkdpQe-319" target="TX3pzebjtwrbGhLkdpQe-442">
          <mxGeometry relative="1" as="geometry">
            <Array as="points">
              <mxPoint x="1950" y="410" />
              <mxPoint x="1950" y="545" />
            </Array>
          </mxGeometry>
        </mxCell>
        <mxCell id="TX3pzebjtwrbGhLkdpQe-449" style="edgeStyle=orthogonalEdgeStyle;rounded=0;orthogonalLoop=1;jettySize=auto;html=1;entryX=0;entryY=0.5;entryDx=0;entryDy=0;" edge="1" parent="1" source="TX3pzebjtwrbGhLkdpQe-319" target="TX3pzebjtwrbGhLkdpQe-444">
          <mxGeometry relative="1" as="geometry">
            <Array as="points">
              <mxPoint x="1950" y="410" />
              <mxPoint x="1950" y="640" />
            </Array>
          </mxGeometry>
        </mxCell>
        <mxCell id="TX3pzebjtwrbGhLkdpQe-319" value="Rollenbahn 1&#xa;FCR4005" style="whiteSpace=wrap;rounded=1;fillColor=#008a00;strokeColor=#005700;shadow=1;fontColor=#ffffff;fontStyle=0" vertex="1" parent="1">
          <mxGeometry x="1960" y="390" width="80" height="40" as="geometry" />
        </mxCell>
        <mxCell id="TX3pzebjtwrbGhLkdpQe-320" value="Seitenbahn&#xa;FCR4004" style="whiteSpace=wrap;rounded=1;fillColor=#008a00;strokeColor=#005700;shadow=1;fontColor=#ffffff;fontStyle=0" vertex="1" parent="1">
          <mxGeometry x="1867.5" y="390" width="70" height="40" as="geometry" />
        </mxCell>
        <mxCell id="TX3pzebjtwrbGhLkdpQe-519" style="edgeStyle=orthogonalEdgeStyle;rounded=0;orthogonalLoop=1;jettySize=auto;html=1;entryX=0;entryY=0.5;entryDx=0;entryDy=0;" edge="1" parent="1" source="TX3pzebjtwrbGhLkdpQe-321" target="TX3pzebjtwrbGhLkdpQe-510">
          <mxGeometry relative="1" as="geometry">
            <Array as="points">
              <mxPoint x="2430" y="410" />
              <mxPoint x="2430" y="465" />
            </Array>
          </mxGeometry>
        </mxCell>
        <mxCell id="TX3pzebjtwrbGhLkdpQe-520" style="edgeStyle=orthogonalEdgeStyle;rounded=0;orthogonalLoop=1;jettySize=auto;html=1;entryX=0;entryY=0.5;entryDx=0;entryDy=0;" edge="1" parent="1" source="TX3pzebjtwrbGhLkdpQe-321" target="TX3pzebjtwrbGhLkdpQe-511">
          <mxGeometry relative="1" as="geometry">
            <Array as="points">
              <mxPoint x="2430" y="410" />
              <mxPoint x="2430" y="505" />
            </Array>
          </mxGeometry>
        </mxCell>
        <mxCell id="TX3pzebjtwrbGhLkdpQe-521" style="edgeStyle=orthogonalEdgeStyle;rounded=0;orthogonalLoop=1;jettySize=auto;html=1;entryX=0;entryY=0.5;entryDx=0;entryDy=0;" edge="1" parent="1" source="TX3pzebjtwrbGhLkdpQe-321" target="TX3pzebjtwrbGhLkdpQe-512">
          <mxGeometry relative="1" as="geometry">
            <Array as="points">
              <mxPoint x="2430" y="410" />
              <mxPoint x="2430" y="545" />
            </Array>
          </mxGeometry>
        </mxCell>
        <mxCell id="TX3pzebjtwrbGhLkdpQe-522" style="edgeStyle=orthogonalEdgeStyle;rounded=0;orthogonalLoop=1;jettySize=auto;html=1;entryX=0;entryY=0.5;entryDx=0;entryDy=0;" edge="1" parent="1" source="TX3pzebjtwrbGhLkdpQe-321" target="TX3pzebjtwrbGhLkdpQe-513">
          <mxGeometry relative="1" as="geometry">
            <Array as="points">
              <mxPoint x="2430" y="410" />
              <mxPoint x="2430" y="585" />
            </Array>
          </mxGeometry>
        </mxCell>
        <mxCell id="TX3pzebjtwrbGhLkdpQe-523" style="edgeStyle=orthogonalEdgeStyle;rounded=0;orthogonalLoop=1;jettySize=auto;html=1;entryX=0;entryY=0.5;entryDx=0;entryDy=0;" edge="1" parent="1" source="TX3pzebjtwrbGhLkdpQe-321" target="TX3pzebjtwrbGhLkdpQe-515">
          <mxGeometry relative="1" as="geometry">
            <Array as="points">
              <mxPoint x="2430" y="410" />
              <mxPoint x="2430" y="630" />
            </Array>
          </mxGeometry>
        </mxCell>
        <mxCell id="TX3pzebjtwrbGhLkdpQe-524" style="edgeStyle=orthogonalEdgeStyle;rounded=0;orthogonalLoop=1;jettySize=auto;html=1;entryX=0;entryY=0.5;entryDx=0;entryDy=0;" edge="1" parent="1" source="TX3pzebjtwrbGhLkdpQe-321" target="TX3pzebjtwrbGhLkdpQe-516">
          <mxGeometry relative="1" as="geometry">
            <Array as="points">
              <mxPoint x="2430" y="410" />
              <mxPoint x="2430" y="680" />
            </Array>
          </mxGeometry>
        </mxCell>
        <mxCell id="TX3pzebjtwrbGhLkdpQe-525" style="edgeStyle=orthogonalEdgeStyle;rounded=0;orthogonalLoop=1;jettySize=auto;html=1;entryX=0;entryY=0.5;entryDx=0;entryDy=0;" edge="1" parent="1" source="TX3pzebjtwrbGhLkdpQe-321" target="TX3pzebjtwrbGhLkdpQe-517">
          <mxGeometry relative="1" as="geometry">
            <Array as="points">
              <mxPoint x="2430" y="410" />
              <mxPoint x="2430" y="730" />
            </Array>
          </mxGeometry>
        </mxCell>
        <mxCell id="TX3pzebjtwrbGhLkdpQe-526" style="edgeStyle=orthogonalEdgeStyle;rounded=0;orthogonalLoop=1;jettySize=auto;html=1;entryX=0;entryY=0.5;entryDx=0;entryDy=0;" edge="1" parent="1" source="TX3pzebjtwrbGhLkdpQe-321" target="TX3pzebjtwrbGhLkdpQe-518">
          <mxGeometry relative="1" as="geometry">
            <Array as="points">
              <mxPoint x="2430" y="410" />
              <mxPoint x="2430" y="780" />
            </Array>
          </mxGeometry>
        </mxCell>
        <mxCell id="TX3pzebjtwrbGhLkdpQe-321" value="Rollenbahn 5&#xa;FCR4003" style="whiteSpace=wrap;rounded=1;fillColor=#008a00;strokeColor=#005700;shadow=1;fontColor=#ffffff;fontStyle=0" vertex="1" parent="1">
          <mxGeometry x="2440" y="390" width="80" height="40" as="geometry" />
        </mxCell>
        <mxCell id="TX3pzebjtwrbGhLkdpQe-529" style="edgeStyle=orthogonalEdgeStyle;rounded=0;orthogonalLoop=1;jettySize=auto;html=1;entryX=0;entryY=0.5;entryDx=0;entryDy=0;" edge="1" parent="1" source="TX3pzebjtwrbGhLkdpQe-322" target="TX3pzebjtwrbGhLkdpQe-527">
          <mxGeometry relative="1" as="geometry">
            <Array as="points">
              <mxPoint x="2550" y="410" />
              <mxPoint x="2550" y="465" />
            </Array>
          </mxGeometry>
        </mxCell>
        <mxCell id="TX3pzebjtwrbGhLkdpQe-530" style="edgeStyle=orthogonalEdgeStyle;rounded=0;orthogonalLoop=1;jettySize=auto;html=1;entryX=0;entryY=0.5;entryDx=0;entryDy=0;" edge="1" parent="1" source="TX3pzebjtwrbGhLkdpQe-322" target="TX3pzebjtwrbGhLkdpQe-528">
          <mxGeometry relative="1" as="geometry">
            <Array as="points">
              <mxPoint x="2550" y="410" />
              <mxPoint x="2550" y="505" />
            </Array>
          </mxGeometry>
        </mxCell>
        <mxCell id="TX3pzebjtwrbGhLkdpQe-322" value="Speicherbahn&#xa;FCR4002" style="whiteSpace=wrap;rounded=1;fillColor=#008a00;strokeColor=#005700;shadow=1;fontColor=#ffffff;fontStyle=0" vertex="1" parent="1">
          <mxGeometry x="2560" y="390" width="80" height="40" as="geometry" />
        </mxCell>
        <mxCell id="TX3pzebjtwrbGhLkdpQe-323" value="RA-Deck&#xa;FCE 4001" style="whiteSpace=wrap;rounded=1;shadow=1;fontStyle=0;fillColor=#1ba1e2;strokeColor=#006EAF;fontColor=#ffffff;" vertex="1" parent="1">
          <mxGeometry x="1970.04" y="570" width="65" height="40" as="geometry" />
        </mxCell>
        <mxCell id="TX3pzebjtwrbGhLkdpQe-338" value="" style="edgeStyle=elbowEdgeStyle;elbow=vertical;rounded=0;fontColor=#000000;endArrow=none;endFill=0;strokeWidth=8;strokeColor=#23445D;entryX=0.5;entryY=0;entryDx=0;entryDy=0;exitX=0.5;exitY=1;exitDx=0;exitDy=0;" edge="1" parent="1" source="8">
          <mxGeometry width="100" height="100" relative="1" as="geometry">
            <mxPoint x="1720" y="240" as="sourcePoint" />
            <mxPoint x="1775" y="300" as="targetPoint" />
          </mxGeometry>
        </mxCell>
        <mxCell id="TX3pzebjtwrbGhLkdpQe-356" style="edgeStyle=orthogonalEdgeStyle;rounded=0;orthogonalLoop=1;jettySize=auto;html=1;entryX=0;entryY=0.5;entryDx=0;entryDy=0;" edge="1" parent="1" source="TX3pzebjtwrbGhLkdpQe-363" target="TX3pzebjtwrbGhLkdpQe-370">
          <mxGeometry relative="1" as="geometry">
            <Array as="points">
              <mxPoint x="1610.04" y="320" />
              <mxPoint x="1610.04" y="670" />
            </Array>
          </mxGeometry>
        </mxCell>
        <mxCell id="TX3pzebjtwrbGhLkdpQe-357" style="edgeStyle=orthogonalEdgeStyle;rounded=0;orthogonalLoop=1;jettySize=auto;html=1;entryX=0;entryY=0.5;entryDx=0;entryDy=0;" edge="1" parent="1" source="TX3pzebjtwrbGhLkdpQe-363" target="TX3pzebjtwrbGhLkdpQe-369">
          <mxGeometry relative="1" as="geometry">
            <Array as="points">
              <mxPoint x="1610.04" y="320" />
              <mxPoint x="1610.04" y="620" />
            </Array>
          </mxGeometry>
        </mxCell>
        <mxCell id="TX3pzebjtwrbGhLkdpQe-358" style="edgeStyle=orthogonalEdgeStyle;rounded=0;orthogonalLoop=1;jettySize=auto;html=1;entryX=0;entryY=0.5;entryDx=0;entryDy=0;" edge="1" parent="1" source="TX3pzebjtwrbGhLkdpQe-363" target="TX3pzebjtwrbGhLkdpQe-368">
          <mxGeometry relative="1" as="geometry">
            <Array as="points">
              <mxPoint x="1610.04" y="320" />
              <mxPoint x="1610.04" y="570" />
            </Array>
          </mxGeometry>
        </mxCell>
        <mxCell id="TX3pzebjtwrbGhLkdpQe-359" style="edgeStyle=orthogonalEdgeStyle;rounded=0;orthogonalLoop=1;jettySize=auto;html=1;entryX=0;entryY=0.5;entryDx=0;entryDy=0;" edge="1" parent="1" source="TX3pzebjtwrbGhLkdpQe-363" target="TX3pzebjtwrbGhLkdpQe-367">
          <mxGeometry relative="1" as="geometry">
            <Array as="points">
              <mxPoint x="1610.04" y="320" />
              <mxPoint x="1610.04" y="520" />
            </Array>
          </mxGeometry>
        </mxCell>
        <mxCell id="TX3pzebjtwrbGhLkdpQe-360" style="edgeStyle=orthogonalEdgeStyle;rounded=0;orthogonalLoop=1;jettySize=auto;html=1;entryX=0;entryY=0.5;entryDx=0;entryDy=0;" edge="1" parent="1" source="TX3pzebjtwrbGhLkdpQe-363" target="TX3pzebjtwrbGhLkdpQe-366">
          <mxGeometry relative="1" as="geometry">
            <Array as="points">
              <mxPoint x="1610.04" y="320" />
              <mxPoint x="1610.04" y="470" />
            </Array>
          </mxGeometry>
        </mxCell>
        <mxCell id="TX3pzebjtwrbGhLkdpQe-361" style="edgeStyle=orthogonalEdgeStyle;rounded=0;orthogonalLoop=1;jettySize=auto;html=1;entryX=0;entryY=0.5;entryDx=0;entryDy=0;" edge="1" parent="1" source="TX3pzebjtwrbGhLkdpQe-363" target="TX3pzebjtwrbGhLkdpQe-365">
          <mxGeometry relative="1" as="geometry">
            <Array as="points">
              <mxPoint x="1610.04" y="320" />
              <mxPoint x="1610.04" y="420" />
            </Array>
          </mxGeometry>
        </mxCell>
        <mxCell id="TX3pzebjtwrbGhLkdpQe-362" style="edgeStyle=orthogonalEdgeStyle;rounded=0;orthogonalLoop=1;jettySize=auto;html=1;entryX=0;entryY=0.5;entryDx=0;entryDy=0;" edge="1" parent="1" source="TX3pzebjtwrbGhLkdpQe-363" target="TX3pzebjtwrbGhLkdpQe-364">
          <mxGeometry relative="1" as="geometry">
            <Array as="points">
              <mxPoint x="1610.04" y="320" />
              <mxPoint x="1610.04" y="370" />
            </Array>
          </mxGeometry>
        </mxCell>
        <mxCell id="TX3pzebjtwrbGhLkdpQe-363" value="MCC 10" style="whiteSpace=wrap;rounded=1;fillColor=#12AAB5;strokeColor=none;shadow=1;fontColor=#FFFFFF;" vertex="1" parent="1">
          <mxGeometry x="1620.04" y="300" width="50" height="40" as="geometry" />
        </mxCell>
        <mxCell id="TX3pzebjtwrbGhLkdpQe-364" value="FCE4007" style="whiteSpace=wrap;rounded=1;fillColor=#999999;strokeColor=none;shadow=1;fontColor=#FFFFFF;fontStyle=0" vertex="1" parent="1">
          <mxGeometry x="1630.04" y="350" width="65" height="40" as="geometry" />
        </mxCell>
        <mxCell id="TX3pzebjtwrbGhLkdpQe-365" value="FCE4006" style="whiteSpace=wrap;rounded=1;fillColor=#999999;strokeColor=none;shadow=1;fontColor=#FFFFFF;fontStyle=0" vertex="1" parent="1">
          <mxGeometry x="1630.04" y="400" width="65" height="40" as="geometry" />
        </mxCell>
        <mxCell id="TX3pzebjtwrbGhLkdpQe-366" value="FCE4005" style="whiteSpace=wrap;rounded=1;fillColor=#999999;strokeColor=none;shadow=1;fontColor=#FFFFFF;fontStyle=0" vertex="1" parent="1">
          <mxGeometry x="1630.04" y="450" width="65" height="40" as="geometry" />
        </mxCell>
        <mxCell id="TX3pzebjtwrbGhLkdpQe-367" value="FCE4073" style="whiteSpace=wrap;rounded=1;fillColor=#999999;strokeColor=none;shadow=1;fontColor=#FFFFFF;fontStyle=0" vertex="1" parent="1">
          <mxGeometry x="1630.04" y="500" width="65" height="40" as="geometry" />
        </mxCell>
        <mxCell id="TX3pzebjtwrbGhLkdpQe-368" value="FCR4013" style="whiteSpace=wrap;rounded=1;fillColor=#999999;strokeColor=none;shadow=1;fontColor=#FFFFFF;fontStyle=0" vertex="1" parent="1">
          <mxGeometry x="1630.04" y="550" width="65" height="40" as="geometry" />
        </mxCell>
        <mxCell id="TX3pzebjtwrbGhLkdpQe-369" value="FCR4012" style="whiteSpace=wrap;rounded=1;fillColor=#999999;strokeColor=none;shadow=1;fontColor=#FFFFFF;fontStyle=0" vertex="1" parent="1">
          <mxGeometry x="1630.04" y="600" width="65" height="40" as="geometry" />
        </mxCell>
        <mxCell id="TX3pzebjtwrbGhLkdpQe-370" value="FCR4011" style="whiteSpace=wrap;rounded=1;fillColor=#999999;strokeColor=none;shadow=1;fontColor=#FFFFFF;fontStyle=0" vertex="1" parent="1">
          <mxGeometry x="1630.04" y="650" width="65" height="40" as="geometry" />
        </mxCell>
        <mxCell id="TX3pzebjtwrbGhLkdpQe-387" style="edgeStyle=orthogonalEdgeStyle;rounded=0;orthogonalLoop=1;jettySize=auto;html=1;entryX=0;entryY=0.5;entryDx=0;entryDy=0;" edge="1" parent="1" source="TX3pzebjtwrbGhLkdpQe-394" target="TX3pzebjtwrbGhLkdpQe-401">
          <mxGeometry relative="1" as="geometry">
            <Array as="points">
              <mxPoint x="1740.04" y="320" />
              <mxPoint x="1740.04" y="670" />
            </Array>
          </mxGeometry>
        </mxCell>
        <mxCell id="TX3pzebjtwrbGhLkdpQe-388" style="edgeStyle=orthogonalEdgeStyle;rounded=0;orthogonalLoop=1;jettySize=auto;html=1;entryX=0;entryY=0.5;entryDx=0;entryDy=0;" edge="1" parent="1" source="TX3pzebjtwrbGhLkdpQe-394" target="TX3pzebjtwrbGhLkdpQe-400">
          <mxGeometry relative="1" as="geometry">
            <Array as="points">
              <mxPoint x="1740.04" y="320" />
              <mxPoint x="1740.04" y="620" />
            </Array>
          </mxGeometry>
        </mxCell>
        <mxCell id="TX3pzebjtwrbGhLkdpQe-389" style="edgeStyle=orthogonalEdgeStyle;rounded=0;orthogonalLoop=1;jettySize=auto;html=1;entryX=0;entryY=0.5;entryDx=0;entryDy=0;" edge="1" parent="1" source="TX3pzebjtwrbGhLkdpQe-394" target="TX3pzebjtwrbGhLkdpQe-399">
          <mxGeometry relative="1" as="geometry">
            <Array as="points">
              <mxPoint x="1740.04" y="320" />
              <mxPoint x="1740.04" y="570" />
            </Array>
          </mxGeometry>
        </mxCell>
        <mxCell id="TX3pzebjtwrbGhLkdpQe-390" style="edgeStyle=orthogonalEdgeStyle;rounded=0;orthogonalLoop=1;jettySize=auto;html=1;entryX=0;entryY=0.5;entryDx=0;entryDy=0;" edge="1" parent="1" source="TX3pzebjtwrbGhLkdpQe-394" target="TX3pzebjtwrbGhLkdpQe-398">
          <mxGeometry relative="1" as="geometry">
            <Array as="points">
              <mxPoint x="1740.04" y="320" />
              <mxPoint x="1740.04" y="520" />
            </Array>
          </mxGeometry>
        </mxCell>
        <mxCell id="TX3pzebjtwrbGhLkdpQe-391" style="edgeStyle=orthogonalEdgeStyle;rounded=0;orthogonalLoop=1;jettySize=auto;html=1;entryX=0;entryY=0.5;entryDx=0;entryDy=0;" edge="1" parent="1" source="TX3pzebjtwrbGhLkdpQe-394" target="TX3pzebjtwrbGhLkdpQe-397">
          <mxGeometry relative="1" as="geometry">
            <Array as="points">
              <mxPoint x="1740.04" y="320" />
              <mxPoint x="1740.04" y="470" />
            </Array>
          </mxGeometry>
        </mxCell>
        <mxCell id="TX3pzebjtwrbGhLkdpQe-392" style="edgeStyle=orthogonalEdgeStyle;rounded=0;orthogonalLoop=1;jettySize=auto;html=1;entryX=0;entryY=0.5;entryDx=0;entryDy=0;" edge="1" parent="1" source="TX3pzebjtwrbGhLkdpQe-394" target="TX3pzebjtwrbGhLkdpQe-396">
          <mxGeometry relative="1" as="geometry">
            <Array as="points">
              <mxPoint x="1740.04" y="320" />
              <mxPoint x="1740.04" y="420" />
            </Array>
          </mxGeometry>
        </mxCell>
        <mxCell id="TX3pzebjtwrbGhLkdpQe-393" style="edgeStyle=orthogonalEdgeStyle;rounded=0;orthogonalLoop=1;jettySize=auto;html=1;entryX=0;entryY=0.5;entryDx=0;entryDy=0;" edge="1" parent="1" source="TX3pzebjtwrbGhLkdpQe-394" target="TX3pzebjtwrbGhLkdpQe-395">
          <mxGeometry relative="1" as="geometry">
            <Array as="points">
              <mxPoint x="1740.04" y="320" />
              <mxPoint x="1740.04" y="370" />
            </Array>
          </mxGeometry>
        </mxCell>
        <mxCell id="TX3pzebjtwrbGhLkdpQe-427" style="edgeStyle=orthogonalEdgeStyle;rounded=0;orthogonalLoop=1;jettySize=auto;html=1;entryX=0;entryY=0.5;entryDx=0;entryDy=0;" edge="1" parent="1" source="TX3pzebjtwrbGhLkdpQe-394" target="TX3pzebjtwrbGhLkdpQe-423">
          <mxGeometry relative="1" as="geometry">
            <Array as="points">
              <mxPoint x="1740" y="320" />
              <mxPoint x="1740" y="1070" />
            </Array>
          </mxGeometry>
        </mxCell>
        <mxCell id="TX3pzebjtwrbGhLkdpQe-428" style="edgeStyle=orthogonalEdgeStyle;rounded=0;orthogonalLoop=1;jettySize=auto;html=1;entryX=0;entryY=0.5;entryDx=0;entryDy=0;" edge="1" parent="1" source="TX3pzebjtwrbGhLkdpQe-394" target="TX3pzebjtwrbGhLkdpQe-424">
          <mxGeometry relative="1" as="geometry">
            <Array as="points">
              <mxPoint x="1740" y="320" />
              <mxPoint x="1740" y="1120" />
            </Array>
          </mxGeometry>
        </mxCell>
        <mxCell id="TX3pzebjtwrbGhLkdpQe-429" style="edgeStyle=orthogonalEdgeStyle;rounded=0;orthogonalLoop=1;jettySize=auto;html=1;entryX=0;entryY=0.5;entryDx=0;entryDy=0;" edge="1" parent="1" source="TX3pzebjtwrbGhLkdpQe-394" target="TX3pzebjtwrbGhLkdpQe-425">
          <mxGeometry relative="1" as="geometry">
            <Array as="points">
              <mxPoint x="1740" y="320" />
              <mxPoint x="1740" y="1170" />
            </Array>
          </mxGeometry>
        </mxCell>
        <mxCell id="TX3pzebjtwrbGhLkdpQe-394" value="MCC 10" style="whiteSpace=wrap;rounded=1;fillColor=#12AAB5;strokeColor=none;shadow=1;fontColor=#FFFFFF;" vertex="1" parent="1">
          <mxGeometry x="1750.04" y="300" width="50" height="40" as="geometry" />
        </mxCell>
        <mxCell id="TX3pzebjtwrbGhLkdpQe-395" value="FCR4010" style="whiteSpace=wrap;rounded=1;fillColor=#999999;strokeColor=none;shadow=1;fontColor=#FFFFFF;fontStyle=0" vertex="1" parent="1">
          <mxGeometry x="1760.04" y="350" width="65" height="40" as="geometry" />
        </mxCell>
        <mxCell id="TX3pzebjtwrbGhLkdpQe-396" value="FCR4017" style="whiteSpace=wrap;rounded=1;fillColor=#999999;strokeColor=none;shadow=1;fontColor=#FFFFFF;fontStyle=0" vertex="1" parent="1">
          <mxGeometry x="1760.04" y="400" width="65" height="40" as="geometry" />
        </mxCell>
        <mxCell id="TX3pzebjtwrbGhLkdpQe-397" value="FCR4050" style="whiteSpace=wrap;rounded=1;fillColor=#999999;strokeColor=none;shadow=1;fontColor=#FFFFFF;fontStyle=0" vertex="1" parent="1">
          <mxGeometry x="1760.04" y="450" width="65" height="40" as="geometry" />
        </mxCell>
        <mxCell id="TX3pzebjtwrbGhLkdpQe-398" value="FCR4057" style="whiteSpace=wrap;rounded=1;fillColor=#999999;strokeColor=none;shadow=1;fontColor=#FFFFFF;fontStyle=0" vertex="1" parent="1">
          <mxGeometry x="1760.04" y="500" width="65" height="40" as="geometry" />
        </mxCell>
        <mxCell id="TX3pzebjtwrbGhLkdpQe-399" value="FCR4051" style="whiteSpace=wrap;rounded=1;fillColor=#999999;strokeColor=none;shadow=1;fontColor=#FFFFFF;fontStyle=0" vertex="1" parent="1">
          <mxGeometry x="1760.04" y="550" width="65" height="40" as="geometry" />
        </mxCell>
        <mxCell id="TX3pzebjtwrbGhLkdpQe-400" value="FCR4056" style="whiteSpace=wrap;rounded=1;fillColor=#999999;strokeColor=none;shadow=1;fontColor=#FFFFFF;fontStyle=0" vertex="1" parent="1">
          <mxGeometry x="1760.04" y="600" width="65" height="40" as="geometry" />
        </mxCell>
        <mxCell id="TX3pzebjtwrbGhLkdpQe-401" value="FCR4052" style="whiteSpace=wrap;rounded=1;fillColor=#999999;strokeColor=none;shadow=1;fontColor=#FFFFFF;fontStyle=0" vertex="1" parent="1">
          <mxGeometry x="1760.04" y="650" width="65" height="40" as="geometry" />
        </mxCell>
        <mxCell id="TX3pzebjtwrbGhLkdpQe-409" style="edgeStyle=orthogonalEdgeStyle;rounded=0;orthogonalLoop=1;jettySize=auto;html=1;entryX=0;entryY=0.5;entryDx=0;entryDy=0;" edge="1" parent="1" target="TX3pzebjtwrbGhLkdpQe-422">
          <mxGeometry relative="1" as="geometry">
            <Array as="points">
              <mxPoint x="1740.04" y="670" />
              <mxPoint x="1740.04" y="1020" />
            </Array>
            <mxPoint x="1750" y="670" as="sourcePoint" />
          </mxGeometry>
        </mxCell>
        <mxCell id="TX3pzebjtwrbGhLkdpQe-410" style="edgeStyle=orthogonalEdgeStyle;rounded=0;orthogonalLoop=1;jettySize=auto;html=1;entryX=0;entryY=0.5;entryDx=0;entryDy=0;" edge="1" parent="1" target="TX3pzebjtwrbGhLkdpQe-421">
          <mxGeometry relative="1" as="geometry">
            <Array as="points">
              <mxPoint x="1740.04" y="670" />
              <mxPoint x="1740.04" y="970" />
            </Array>
            <mxPoint x="1750" y="670" as="sourcePoint" />
          </mxGeometry>
        </mxCell>
        <mxCell id="TX3pzebjtwrbGhLkdpQe-411" style="edgeStyle=orthogonalEdgeStyle;rounded=0;orthogonalLoop=1;jettySize=auto;html=1;entryX=0;entryY=0.5;entryDx=0;entryDy=0;" edge="1" parent="1" target="TX3pzebjtwrbGhLkdpQe-420">
          <mxGeometry relative="1" as="geometry">
            <Array as="points">
              <mxPoint x="1740.04" y="670" />
              <mxPoint x="1740.04" y="920" />
            </Array>
            <mxPoint x="1750" y="670" as="sourcePoint" />
          </mxGeometry>
        </mxCell>
        <mxCell id="TX3pzebjtwrbGhLkdpQe-412" style="edgeStyle=orthogonalEdgeStyle;rounded=0;orthogonalLoop=1;jettySize=auto;html=1;entryX=0;entryY=0.5;entryDx=0;entryDy=0;" edge="1" parent="1" target="TX3pzebjtwrbGhLkdpQe-419">
          <mxGeometry relative="1" as="geometry">
            <Array as="points">
              <mxPoint x="1740.04" y="670" />
              <mxPoint x="1740.04" y="870" />
            </Array>
            <mxPoint x="1750" y="670" as="sourcePoint" />
          </mxGeometry>
        </mxCell>
        <mxCell id="TX3pzebjtwrbGhLkdpQe-413" style="edgeStyle=orthogonalEdgeStyle;rounded=0;orthogonalLoop=1;jettySize=auto;html=1;entryX=0;entryY=0.5;entryDx=0;entryDy=0;" edge="1" parent="1" target="TX3pzebjtwrbGhLkdpQe-418">
          <mxGeometry relative="1" as="geometry">
            <Array as="points">
              <mxPoint x="1740.04" y="670" />
              <mxPoint x="1740.04" y="820" />
            </Array>
            <mxPoint x="1750" y="670" as="sourcePoint" />
          </mxGeometry>
        </mxCell>
        <mxCell id="TX3pzebjtwrbGhLkdpQe-414" style="edgeStyle=orthogonalEdgeStyle;rounded=0;orthogonalLoop=1;jettySize=auto;html=1;entryX=0;entryY=0.5;entryDx=0;entryDy=0;" edge="1" parent="1" target="TX3pzebjtwrbGhLkdpQe-417">
          <mxGeometry relative="1" as="geometry">
            <Array as="points">
              <mxPoint x="1740.04" y="670" />
              <mxPoint x="1740.04" y="770" />
            </Array>
            <mxPoint x="1750" y="670" as="sourcePoint" />
          </mxGeometry>
        </mxCell>
        <mxCell id="TX3pzebjtwrbGhLkdpQe-415" style="edgeStyle=orthogonalEdgeStyle;rounded=0;orthogonalLoop=1;jettySize=auto;html=1;entryX=0;entryY=0.5;entryDx=0;entryDy=0;" edge="1" parent="1" target="TX3pzebjtwrbGhLkdpQe-416">
          <mxGeometry relative="1" as="geometry">
            <Array as="points">
              <mxPoint x="1740.04" y="670" />
              <mxPoint x="1740.04" y="720" />
            </Array>
            <mxPoint x="1750" y="670" as="sourcePoint" />
          </mxGeometry>
        </mxCell>
        <mxCell id="TX3pzebjtwrbGhLkdpQe-416" value="FCR4055" style="whiteSpace=wrap;rounded=1;fillColor=#999999;strokeColor=none;shadow=1;fontColor=#FFFFFF;fontStyle=0" vertex="1" parent="1">
          <mxGeometry x="1760.04" y="700" width="65" height="40" as="geometry" />
        </mxCell>
        <mxCell id="TX3pzebjtwrbGhLkdpQe-417" value="FCR4053" style="whiteSpace=wrap;rounded=1;fillColor=#999999;strokeColor=none;shadow=1;fontColor=#FFFFFF;fontStyle=0" vertex="1" parent="1">
          <mxGeometry x="1760.04" y="750" width="65" height="40" as="geometry" />
        </mxCell>
        <mxCell id="TX3pzebjtwrbGhLkdpQe-418" value="FCE4041" style="whiteSpace=wrap;rounded=1;fillColor=#999999;strokeColor=none;shadow=1;fontColor=#FFFFFF;fontStyle=0" vertex="1" parent="1">
          <mxGeometry x="1760.04" y="800" width="65" height="40" as="geometry" />
        </mxCell>
        <mxCell id="TX3pzebjtwrbGhLkdpQe-419" value="FCE4072" style="whiteSpace=wrap;rounded=1;fillColor=#999999;strokeColor=none;shadow=1;fontColor=#FFFFFF;fontStyle=0" vertex="1" parent="1">
          <mxGeometry x="1760.04" y="850" width="65" height="40" as="geometry" />
        </mxCell>
        <mxCell id="TX3pzebjtwrbGhLkdpQe-420" value="FCE4070" style="whiteSpace=wrap;rounded=1;fillColor=#999999;strokeColor=none;shadow=1;fontColor=#FFFFFF;fontStyle=0" vertex="1" parent="1">
          <mxGeometry x="1760.04" y="900" width="65" height="40" as="geometry" />
        </mxCell>
        <mxCell id="TX3pzebjtwrbGhLkdpQe-421" value="FCE4071" style="whiteSpace=wrap;rounded=1;fillColor=#999999;strokeColor=none;shadow=1;fontColor=#FFFFFF;fontStyle=0" vertex="1" parent="1">
          <mxGeometry x="1760.04" y="950" width="65" height="40" as="geometry" />
        </mxCell>
        <mxCell id="TX3pzebjtwrbGhLkdpQe-422" value="FCR4011" style="whiteSpace=wrap;rounded=1;fillColor=#999999;strokeColor=none;shadow=1;fontColor=#FFFFFF;fontStyle=0" vertex="1" parent="1">
          <mxGeometry x="1760.04" y="1000" width="65" height="40" as="geometry" />
        </mxCell>
        <mxCell id="TX3pzebjtwrbGhLkdpQe-423" value="FCR4010" style="whiteSpace=wrap;rounded=1;fillColor=#999999;strokeColor=none;shadow=1;fontColor=#FFFFFF;fontStyle=0" vertex="1" parent="1">
          <mxGeometry x="1760.04" y="1050" width="65" height="40" as="geometry" />
        </mxCell>
        <mxCell id="TX3pzebjtwrbGhLkdpQe-424" value="FCR4009" style="whiteSpace=wrap;rounded=1;fillColor=#999999;strokeColor=none;shadow=1;fontColor=#FFFFFF;fontStyle=0" vertex="1" parent="1">
          <mxGeometry x="1760.04" y="1100" width="65" height="40" as="geometry" />
        </mxCell>
        <mxCell id="TX3pzebjtwrbGhLkdpQe-425" value="FCR4008" style="whiteSpace=wrap;rounded=1;fillColor=#999999;strokeColor=none;shadow=1;fontColor=#FFFFFF;fontStyle=0" vertex="1" parent="1">
          <mxGeometry x="1760.04" y="1150" width="65" height="40" as="geometry" />
        </mxCell>
        <mxCell id="TX3pzebjtwrbGhLkdpQe-430" value="" style="edgeStyle=elbowEdgeStyle;elbow=vertical;rounded=0;fontColor=#000000;endArrow=none;endFill=0;strokeWidth=8;strokeColor=#23445D;entryX=0.5;entryY=0;entryDx=0;entryDy=0;exitX=0.5;exitY=1;exitDx=0;exitDy=0;" edge="1" parent="1" source="5" target="TX3pzebjtwrbGhLkdpQe-315">
          <mxGeometry width="100" height="100" relative="1" as="geometry">
            <mxPoint x="2341" y="210" as="sourcePoint" />
            <mxPoint x="2166" y="300" as="targetPoint" />
            <Array as="points">
              <mxPoint x="2470" y="270" />
              <mxPoint x="2330" y="280" />
            </Array>
          </mxGeometry>
        </mxCell>
        <mxCell id="TX3pzebjtwrbGhLkdpQe-432" value="" style="edgeStyle=elbowEdgeStyle;elbow=vertical;rounded=0;fontColor=#000000;endArrow=none;endFill=0;strokeWidth=8;strokeColor=#23445D;entryX=0.5;entryY=0;entryDx=0;entryDy=0;exitX=0.5;exitY=1;exitDx=0;exitDy=0;" edge="1" parent="1" source="TX3pzebjtwrbGhLkdpQe-315" target="TX3pzebjtwrbGhLkdpQe-320">
          <mxGeometry width="100" height="100" relative="1" as="geometry">
            <mxPoint x="2622" y="250" as="sourcePoint" />
            <mxPoint x="2030" y="340" as="targetPoint" />
            <Array as="points">
              <mxPoint x="1920" y="360" />
              <mxPoint x="2202" y="310" />
            </Array>
          </mxGeometry>
        </mxCell>
        <mxCell id="TX3pzebjtwrbGhLkdpQe-433" value="" style="edgeStyle=elbowEdgeStyle;elbow=vertical;rounded=0;fontColor=#000000;endArrow=none;endFill=0;strokeWidth=8;strokeColor=#23445D;entryX=0.5;entryY=0;entryDx=0;entryDy=0;exitX=0.5;exitY=1;exitDx=0;exitDy=0;" edge="1" parent="1" source="TX3pzebjtwrbGhLkdpQe-315" target="TX3pzebjtwrbGhLkdpQe-319">
          <mxGeometry width="100" height="100" relative="1" as="geometry">
            <mxPoint x="2168" y="360" as="sourcePoint" />
            <mxPoint x="1913" y="400" as="targetPoint" />
            <Array as="points">
              <mxPoint x="2000" y="360" />
            </Array>
          </mxGeometry>
        </mxCell>
        <mxCell id="TX3pzebjtwrbGhLkdpQe-434" value="" style="edgeStyle=elbowEdgeStyle;elbow=vertical;rounded=0;fontColor=#000000;endArrow=none;endFill=0;strokeWidth=8;strokeColor=#23445D;entryX=0.5;entryY=1;entryDx=0;entryDy=0;exitX=0.5;exitY=0;exitDx=0;exitDy=0;" edge="1" parent="1" source="TX3pzebjtwrbGhLkdpQe-322" target="TX3pzebjtwrbGhLkdpQe-315">
          <mxGeometry width="100" height="100" relative="1" as="geometry">
            <mxPoint x="2528" y="330" as="sourcePoint" />
            <mxPoint x="2370" y="370" as="targetPoint" />
            <Array as="points">
              <mxPoint x="2340" y="360" />
            </Array>
          </mxGeometry>
        </mxCell>
        <mxCell id="TX3pzebjtwrbGhLkdpQe-435" value="" style="edgeStyle=elbowEdgeStyle;elbow=vertical;rounded=0;fontColor=#000000;endArrow=none;endFill=0;strokeWidth=8;strokeColor=#23445D;entryX=0.5;entryY=0;entryDx=0;entryDy=0;exitX=0.5;exitY=1;exitDx=0;exitDy=0;" edge="1" parent="1" source="TX3pzebjtwrbGhLkdpQe-315" target="TX3pzebjtwrbGhLkdpQe-457">
          <mxGeometry width="100" height="100" relative="1" as="geometry">
            <mxPoint x="2170" y="250" as="sourcePoint" />
            <mxPoint x="2100.0200000000004" y="389.9999999999999" as="targetPoint" />
            <Array as="points">
              <mxPoint x="2110" y="360" />
            </Array>
          </mxGeometry>
        </mxCell>
        <mxCell id="TX3pzebjtwrbGhLkdpQe-436" value="" style="edgeStyle=elbowEdgeStyle;elbow=vertical;rounded=0;fontColor=#000000;endArrow=none;endFill=0;strokeWidth=8;strokeColor=#23445D;entryX=0.5;entryY=1;entryDx=0;entryDy=0;exitX=0.5;exitY=0;exitDx=0;exitDy=0;" edge="1" parent="1" source="TX3pzebjtwrbGhLkdpQe-317" target="TX3pzebjtwrbGhLkdpQe-315">
          <mxGeometry width="100" height="100" relative="1" as="geometry">
            <mxPoint x="2389" y="300" as="sourcePoint" />
            <mxPoint x="2231" y="340" as="targetPoint" />
            <Array as="points">
              <mxPoint x="2200" y="360" />
            </Array>
          </mxGeometry>
        </mxCell>
        <mxCell id="TX3pzebjtwrbGhLkdpQe-437" value="" style="edgeStyle=elbowEdgeStyle;elbow=vertical;rounded=0;fontColor=#000000;endArrow=none;endFill=0;strokeWidth=8;strokeColor=#23445D;entryX=0.5;entryY=1;entryDx=0;entryDy=0;exitX=0.5;exitY=0;exitDx=0;exitDy=0;" edge="1" parent="1" source="TX3pzebjtwrbGhLkdpQe-316" target="TX3pzebjtwrbGhLkdpQe-315">
          <mxGeometry width="100" height="100" relative="1" as="geometry">
            <mxPoint x="2350" y="310" as="sourcePoint" />
            <mxPoint x="2192" y="350" as="targetPoint" />
            <Array as="points">
              <mxPoint x="2230" y="360" />
            </Array>
          </mxGeometry>
        </mxCell>
        <mxCell id="TX3pzebjtwrbGhLkdpQe-438" value="" style="edgeStyle=elbowEdgeStyle;elbow=vertical;rounded=0;fontColor=#000000;endArrow=none;endFill=0;strokeWidth=8;strokeColor=#23445D;entryX=0.5;entryY=1;entryDx=0;entryDy=0;exitX=0.5;exitY=0;exitDx=0;exitDy=0;" edge="1" parent="1" source="TX3pzebjtwrbGhLkdpQe-321" target="TX3pzebjtwrbGhLkdpQe-315">
          <mxGeometry width="100" height="100" relative="1" as="geometry">
            <mxPoint x="2417" y="360" as="sourcePoint" />
            <mxPoint x="2265" y="320" as="targetPoint" />
            <Array as="points">
              <mxPoint x="2240" y="360" />
            </Array>
          </mxGeometry>
        </mxCell>
        <mxCell id="TX3pzebjtwrbGhLkdpQe-439" value="Rollenförderer&#xa;FCR4005-1" style="whiteSpace=wrap;rounded=1;fillColor=#ff0000;strokeColor=#36393d;shadow=1;fontStyle=0;" vertex="1" parent="1">
          <mxGeometry x="1970.04" y="450" width="89.98" height="30" as="geometry" />
        </mxCell>
        <mxCell id="TX3pzebjtwrbGhLkdpQe-440" value="Rollenförderer&#xa;FCR4005-2" style="whiteSpace=wrap;rounded=1;fillColor=#ff0000;strokeColor=#36393d;shadow=1;fontStyle=0;" vertex="1" parent="1">
          <mxGeometry x="1970.02" y="490" width="90" height="30" as="geometry" />
        </mxCell>
        <mxCell id="TX3pzebjtwrbGhLkdpQe-442" value="Rollenförderer&#xa;FCR4005-3" style="whiteSpace=wrap;rounded=1;fillColor=#ff0000;strokeColor=#36393d;shadow=1;fontStyle=0;" vertex="1" parent="1">
          <mxGeometry x="1970.04" y="530" width="90" height="30" as="geometry" />
        </mxCell>
        <mxCell id="TX3pzebjtwrbGhLkdpQe-444" value="Hydraulik" style="whiteSpace=wrap;rounded=1;shadow=1;fontStyle=0;fillColor=#a0522d;strokeColor=#6D1F00;fontColor=#ffffff;" vertex="1" parent="1">
          <mxGeometry x="1970.02" y="620" width="65" height="40" as="geometry" />
        </mxCell>
        <mxCell id="TX3pzebjtwrbGhLkdpQe-452" style="edgeStyle=orthogonalEdgeStyle;rounded=0;orthogonalLoop=1;jettySize=auto;html=1;entryX=0;entryY=0.5;entryDx=0;entryDy=0;" edge="1" parent="1" source="TX3pzebjtwrbGhLkdpQe-457" target="TX3pzebjtwrbGhLkdpQe-459">
          <mxGeometry relative="1" as="geometry">
            <Array as="points">
              <mxPoint x="2070.0200000000004" y="410" />
              <mxPoint x="2070.0200000000004" y="465" />
            </Array>
          </mxGeometry>
        </mxCell>
        <mxCell id="TX3pzebjtwrbGhLkdpQe-453" style="edgeStyle=orthogonalEdgeStyle;rounded=0;orthogonalLoop=1;jettySize=auto;html=1;entryX=0;entryY=0.5;entryDx=0;entryDy=0;" edge="1" parent="1" source="TX3pzebjtwrbGhLkdpQe-457" target="TX3pzebjtwrbGhLkdpQe-460">
          <mxGeometry relative="1" as="geometry">
            <Array as="points">
              <mxPoint x="2070.0200000000004" y="410" />
              <mxPoint x="2070.0200000000004" y="505" />
            </Array>
          </mxGeometry>
        </mxCell>
        <mxCell id="TX3pzebjtwrbGhLkdpQe-455" style="edgeStyle=orthogonalEdgeStyle;rounded=0;orthogonalLoop=1;jettySize=auto;html=1;entryX=0;entryY=0.5;entryDx=0;entryDy=0;" edge="1" parent="1" source="TX3pzebjtwrbGhLkdpQe-457" target="TX3pzebjtwrbGhLkdpQe-461">
          <mxGeometry relative="1" as="geometry">
            <Array as="points">
              <mxPoint x="2070.0200000000004" y="410" />
              <mxPoint x="2070.0200000000004" y="545" />
            </Array>
          </mxGeometry>
        </mxCell>
        <mxCell id="TX3pzebjtwrbGhLkdpQe-478" style="edgeStyle=orthogonalEdgeStyle;rounded=0;orthogonalLoop=1;jettySize=auto;html=1;entryX=0;entryY=0.5;entryDx=0;entryDy=0;" edge="1" parent="1" source="TX3pzebjtwrbGhLkdpQe-457" target="TX3pzebjtwrbGhLkdpQe-475">
          <mxGeometry relative="1" as="geometry">
            <Array as="points">
              <mxPoint x="2070" y="410" />
              <mxPoint x="2070" y="585" />
            </Array>
          </mxGeometry>
        </mxCell>
        <mxCell id="TX3pzebjtwrbGhLkdpQe-479" style="edgeStyle=orthogonalEdgeStyle;rounded=0;orthogonalLoop=1;jettySize=auto;html=1;entryX=0;entryY=0.5;entryDx=0;entryDy=0;" edge="1" parent="1" source="TX3pzebjtwrbGhLkdpQe-457" target="TX3pzebjtwrbGhLkdpQe-477">
          <mxGeometry relative="1" as="geometry">
            <Array as="points">
              <mxPoint x="2070" y="410" />
              <mxPoint x="2070" y="625" />
            </Array>
          </mxGeometry>
        </mxCell>
        <mxCell id="TX3pzebjtwrbGhLkdpQe-481" style="edgeStyle=orthogonalEdgeStyle;rounded=0;orthogonalLoop=1;jettySize=auto;html=1;entryX=0;entryY=0.5;entryDx=0;entryDy=0;" edge="1" parent="1" source="TX3pzebjtwrbGhLkdpQe-457" target="TX3pzebjtwrbGhLkdpQe-480">
          <mxGeometry relative="1" as="geometry">
            <Array as="points">
              <mxPoint x="2070" y="410" />
              <mxPoint x="2070" y="670" />
            </Array>
          </mxGeometry>
        </mxCell>
        <mxCell id="TX3pzebjtwrbGhLkdpQe-457" value="Rollenbahn 2&#xa;FCR4006" style="whiteSpace=wrap;rounded=1;fillColor=#008a00;strokeColor=#005700;shadow=1;fontColor=#ffffff;fontStyle=0" vertex="1" parent="1">
          <mxGeometry x="2080.0200000000004" y="390" width="80" height="40" as="geometry" />
        </mxCell>
        <mxCell id="TX3pzebjtwrbGhLkdpQe-459" value="Rollenförderer&#xa;FCR4006-1" style="whiteSpace=wrap;rounded=1;fillColor=#ff0000;strokeColor=#36393d;shadow=1;fontStyle=0;" vertex="1" parent="1">
          <mxGeometry x="2090.0600000000004" y="450" width="89.98" height="30" as="geometry" />
        </mxCell>
        <mxCell id="TX3pzebjtwrbGhLkdpQe-460" value="Rollenförderer&#xa;FCR4006-2" style="whiteSpace=wrap;rounded=1;fillColor=#ff0000;strokeColor=#36393d;shadow=1;fontStyle=0;" vertex="1" parent="1">
          <mxGeometry x="2090.0400000000004" y="490" width="90" height="30" as="geometry" />
        </mxCell>
        <mxCell id="TX3pzebjtwrbGhLkdpQe-461" value="Rollenförderer&#xa;FCR4006-3" style="whiteSpace=wrap;rounded=1;fillColor=#ff0000;strokeColor=#36393d;shadow=1;fontStyle=0;" vertex="1" parent="1">
          <mxGeometry x="2090.0600000000004" y="530" width="90" height="30" as="geometry" />
        </mxCell>
        <mxCell id="TX3pzebjtwrbGhLkdpQe-475" value="Rollenförderer&#xa;FCR4006-4" style="whiteSpace=wrap;rounded=1;fillColor=#ff0000;strokeColor=#36393d;shadow=1;fontStyle=0;" vertex="1" parent="1">
          <mxGeometry x="2090.0600000000004" y="570" width="90" height="30" as="geometry" />
        </mxCell>
        <mxCell id="TX3pzebjtwrbGhLkdpQe-477" value="Rollenförderer&#xa;FCR4006-5" style="whiteSpace=wrap;rounded=1;fillColor=#ff0000;strokeColor=#36393d;shadow=1;fontStyle=0;" vertex="1" parent="1">
          <mxGeometry x="2090.0400000000004" y="610" width="90" height="30" as="geometry" />
        </mxCell>
        <mxCell id="TX3pzebjtwrbGhLkdpQe-480" value="Hydraulik" style="whiteSpace=wrap;rounded=1;shadow=1;fontStyle=0;fillColor=#a0522d;strokeColor=#6D1F00;fontColor=#ffffff;" vertex="1" parent="1">
          <mxGeometry x="2087.52" y="650" width="65" height="40" as="geometry" />
        </mxCell>
        <mxCell id="TX3pzebjtwrbGhLkdpQe-482" value="Rollenförderer&#xa;FCR4007-1" style="whiteSpace=wrap;rounded=1;fillColor=#ff0000;strokeColor=#36393d;shadow=1;fontStyle=0;" vertex="1" parent="1">
          <mxGeometry x="2210.0200000000004" y="450" width="89.98" height="30" as="geometry" />
        </mxCell>
        <mxCell id="TX3pzebjtwrbGhLkdpQe-483" value="Rollenförderer&#xa;FCR4007-2" style="whiteSpace=wrap;rounded=1;fillColor=#ff0000;strokeColor=#36393d;shadow=1;fontStyle=0;" vertex="1" parent="1">
          <mxGeometry x="2210.0000000000005" y="490" width="90" height="30" as="geometry" />
        </mxCell>
        <mxCell id="TX3pzebjtwrbGhLkdpQe-484" value="Rollenförderer&#xa;FCR4007-3" style="whiteSpace=wrap;rounded=1;fillColor=#ff0000;strokeColor=#36393d;shadow=1;fontStyle=0;" vertex="1" parent="1">
          <mxGeometry x="2210.0200000000004" y="530" width="90" height="30" as="geometry" />
        </mxCell>
        <mxCell id="TX3pzebjtwrbGhLkdpQe-485" value="Rollenförderer&#xa;FCR4007-4" style="whiteSpace=wrap;rounded=1;fillColor=#ff0000;strokeColor=#36393d;shadow=1;fontStyle=0;" vertex="1" parent="1">
          <mxGeometry x="2210.0200000000004" y="570" width="90" height="30" as="geometry" />
        </mxCell>
        <mxCell id="TX3pzebjtwrbGhLkdpQe-486" value="Rollenförderer&#xa;FCR4007-5" style="whiteSpace=wrap;rounded=1;fillColor=#ff0000;strokeColor=#36393d;shadow=1;fontStyle=0;" vertex="1" parent="1">
          <mxGeometry x="2210.0000000000005" y="610" width="90" height="30" as="geometry" />
        </mxCell>
        <mxCell id="TX3pzebjtwrbGhLkdpQe-487" value="Hydraulik" style="whiteSpace=wrap;rounded=1;shadow=1;fontStyle=0;fillColor=#a0522d;strokeColor=#6D1F00;fontColor=#ffffff;" vertex="1" parent="1">
          <mxGeometry x="2207.5" y="650" width="65" height="40" as="geometry" />
        </mxCell>
        <mxCell id="TX3pzebjtwrbGhLkdpQe-497" value="Rollenförderer&#xa;FCR4008-1" style="whiteSpace=wrap;rounded=1;fillColor=#ff0000;strokeColor=#36393d;shadow=1;fontStyle=0;" vertex="1" parent="1">
          <mxGeometry x="2330.0000000000005" y="450" width="89.98" height="30" as="geometry" />
        </mxCell>
        <mxCell id="TX3pzebjtwrbGhLkdpQe-498" value="Rollenförderer&#xa;FCR4008-2" style="whiteSpace=wrap;rounded=1;fillColor=#ff0000;strokeColor=#36393d;shadow=1;fontStyle=0;" vertex="1" parent="1">
          <mxGeometry x="2329.9800000000005" y="490" width="90" height="30" as="geometry" />
        </mxCell>
        <mxCell id="TX3pzebjtwrbGhLkdpQe-499" value="Rollenförderer&#xa;FCR4008-3" style="whiteSpace=wrap;rounded=1;fillColor=#ff0000;strokeColor=#36393d;shadow=1;fontStyle=0;" vertex="1" parent="1">
          <mxGeometry x="2330.0000000000005" y="530" width="90" height="30" as="geometry" />
        </mxCell>
        <mxCell id="TX3pzebjtwrbGhLkdpQe-500" value="Rollenförderer&#xa;FCR4008-4" style="whiteSpace=wrap;rounded=1;fillColor=#ff0000;strokeColor=#36393d;shadow=1;fontStyle=0;" vertex="1" parent="1">
          <mxGeometry x="2330.0000000000005" y="570" width="90" height="30" as="geometry" />
        </mxCell>
        <mxCell id="TX3pzebjtwrbGhLkdpQe-501" value="Rollenförderer&#xa;FCR4008-5" style="whiteSpace=wrap;rounded=1;fillColor=#ff0000;strokeColor=#36393d;shadow=1;fontStyle=0;" vertex="1" parent="1">
          <mxGeometry x="2329.9800000000005" y="610" width="90" height="30" as="geometry" />
        </mxCell>
        <mxCell id="TX3pzebjtwrbGhLkdpQe-502" value="Hydraulik" style="whiteSpace=wrap;rounded=1;shadow=1;fontStyle=0;fillColor=#a0522d;strokeColor=#6D1F00;fontColor=#ffffff;" vertex="1" parent="1">
          <mxGeometry x="2327.48" y="650" width="65" height="40" as="geometry" />
        </mxCell>
        <mxCell id="TX3pzebjtwrbGhLkdpQe-510" value="Rollenförderer&#xa;FCR4003-1" style="whiteSpace=wrap;rounded=1;fillColor=#ff0000;strokeColor=#36393d;shadow=1;fontStyle=0;" vertex="1" parent="1">
          <mxGeometry x="2450.0200000000004" y="450" width="89.98" height="30" as="geometry" />
        </mxCell>
        <mxCell id="TX3pzebjtwrbGhLkdpQe-511" value="Rollenförderer&#xa;FCR4003-2" style="whiteSpace=wrap;rounded=1;fillColor=#ff0000;strokeColor=#36393d;shadow=1;fontStyle=0;" vertex="1" parent="1">
          <mxGeometry x="2450.0000000000005" y="490" width="90" height="30" as="geometry" />
        </mxCell>
        <mxCell id="TX3pzebjtwrbGhLkdpQe-512" value="Rollenförderer&#xa;FCR4003-3" style="whiteSpace=wrap;rounded=1;fillColor=#ff0000;strokeColor=#36393d;shadow=1;fontStyle=0;" vertex="1" parent="1">
          <mxGeometry x="2450.0200000000004" y="530" width="90" height="30" as="geometry" />
        </mxCell>
        <mxCell id="TX3pzebjtwrbGhLkdpQe-513" value="Rollenförderer&#xa;FCR4003-4" style="whiteSpace=wrap;rounded=1;fillColor=#ff0000;strokeColor=#36393d;shadow=1;fontStyle=0;" vertex="1" parent="1">
          <mxGeometry x="2450.0200000000004" y="570" width="90" height="30" as="geometry" />
        </mxCell>
        <mxCell id="TX3pzebjtwrbGhLkdpQe-515" value="RA-Deck&#xa;FCE 4002" style="whiteSpace=wrap;rounded=1;shadow=1;fontStyle=0;fillColor=#1ba1e2;strokeColor=#006EAF;fontColor=#ffffff;" vertex="1" parent="1">
          <mxGeometry x="2450.02" y="610" width="65" height="40" as="geometry" />
        </mxCell>
        <mxCell id="TX3pzebjtwrbGhLkdpQe-516" value="RA-Deck&#xa;FCE 4003" style="whiteSpace=wrap;rounded=1;shadow=1;fontStyle=0;fillColor=#1ba1e2;strokeColor=#006EAF;fontColor=#ffffff;" vertex="1" parent="1">
          <mxGeometry x="2450" y="660" width="65" height="40" as="geometry" />
        </mxCell>
        <mxCell id="TX3pzebjtwrbGhLkdpQe-517" value="RA-Deck&#xa;FCE 4004" style="whiteSpace=wrap;rounded=1;shadow=1;fontStyle=0;fillColor=#1ba1e2;strokeColor=#006EAF;fontColor=#ffffff;" vertex="1" parent="1">
          <mxGeometry x="2450.02" y="710" width="65" height="40" as="geometry" />
        </mxCell>
        <mxCell id="TX3pzebjtwrbGhLkdpQe-518" value="Drehtisch&#xa;FCE 4040" style="whiteSpace=wrap;rounded=1;shadow=1;fontStyle=0;fillColor=#fff2cc;strokeColor=#d6b656;gradientColor=#ffd966;" vertex="1" parent="1">
          <mxGeometry x="2450.02" y="760" width="65" height="40" as="geometry" />
        </mxCell>
        <mxCell id="TX3pzebjtwrbGhLkdpQe-527" value="Rollenförderer&#xa;FCR4002-1" style="whiteSpace=wrap;rounded=1;fillColor=#ff0000;strokeColor=#36393d;shadow=1;fontStyle=0;" vertex="1" parent="1">
          <mxGeometry x="2570.0200000000004" y="450" width="89.98" height="30" as="geometry" />
        </mxCell>
        <mxCell id="TX3pzebjtwrbGhLkdpQe-528" value="Rollenförderer&#xa;FCR4002-2" style="whiteSpace=wrap;rounded=1;fillColor=#ff0000;strokeColor=#36393d;shadow=1;fontStyle=0;" vertex="1" parent="1">
          <mxGeometry x="2570.0000000000005" y="490" width="90" height="30" as="geometry" />
        </mxCell>
        <mxCell id="TX3pzebjtwrbGhLkdpQe-534" value="TV-Bahn&lt;br&gt;FCZ 4001" style="whiteSpace=wrap;html=1;fillColor=#e6d0de;strokeColor=#996185;rounded=1;shadow=1;gradientColor=#d5739d;" vertex="1" parent="1">
          <mxGeometry x="2712.51" y="395" width="75.06" height="30" as="geometry" />
        </mxCell>
        <mxCell id="TX3pzebjtwrbGhLkdpQe-537" value="" style="edgeStyle=elbowEdgeStyle;elbow=vertical;rounded=0;fontColor=#000000;endArrow=none;endFill=0;strokeWidth=8;strokeColor=#23445D;entryX=0.5;entryY=1;entryDx=0;entryDy=0;exitX=0.5;exitY=0;exitDx=0;exitDy=0;" edge="1" parent="1" source="TX3pzebjtwrbGhLkdpQe-534" target="TX3pzebjtwrbGhLkdpQe-245">
          <mxGeometry width="100" height="100" relative="1" as="geometry">
            <mxPoint x="3170" y="415" as="sourcePoint" />
            <mxPoint x="2810" y="375" as="targetPoint" />
            <Array as="points">
              <mxPoint x="2750" y="400" />
            </Array>
          </mxGeometry>
        </mxCell>
      </root>
    </mxGraphModel>
  </diagram>
</mxfile>
